<svg xmlns="http://www.w3.org/2000/svg" xmlns:xlink="http://www.w3.org/1999/xlink" x="0" y="0" width="661.9871826171875" height="410.9188232421875" style="
        width:661.9871826171875px;
        height:410.9188232421875px;
        fill: none;
">
        <svg xmlns="http://www.w3.org/2000/svg" class="role-diagram-draw-area"><g class="shapes-region" style="stroke: black; fill: none;"><g class="composite-shape"><path class="real" d=" M492,145 L652,145 L652,190 L492,190 Z" style="stroke-width: 1; stroke: rgb(0, 0, 0); fill: rgb(255, 255, 255); fill-opacity: 1;"/></g><g class="composite-shape"><path class="real" d=" M105,295 L265,295 L265,340 L105,340 Z" style="stroke-width: 1; stroke: rgb(0, 0, 0); fill: rgb(255, 255, 255); fill-opacity: 1;"/></g><g class="composite-shape"><path class="real" d=" M154,155 L196,155 L196,145 L224,165 L196,185 L196,175 L154,175 Z" style="stroke-width: 1; stroke: rgb(0, 0, 0); fill: rgb(255, 255, 255); fill-opacity: 1;"/></g><g class="composite-shape"><path class="real" d=" M416,155 L458,155 L458,145 L486,165 L458,185 L458,175 L416,175 Z" style="stroke-width: 1; stroke: rgb(0, 0, 0); fill: rgb(255, 255, 255); fill-opacity: 1;"/></g><g class="composite-shape"><path class="real" d=" M27,305 L69,305 L69,295 L97,315 L69,335 L69,325 L27,325 Z" style="stroke-width: 1; stroke: rgb(0, 0, 0); fill: rgb(255, 255, 255); fill-opacity: 1;"/></g><g class="composite-shape"><path class="real" d=" M247,145 L287,145 L287,160 L247,160 Z" style="stroke-width: 1; stroke: rgb(0, 0, 0); fill: rgb(208, 2, 27); fill-opacity: 1;"/></g><g class="composite-shape"><path class="real" d=" M287,145 L327,145 L327,160 L287,160 Z" style="stroke-width: 1; stroke: rgb(0, 0, 0); fill: rgb(245, 166, 35); fill-opacity: 1;"/></g><g class="composite-shape"><path class="real" d=" M247,160 L287,160 L287,175 L247,175 Z" style="stroke-width: 1; stroke: rgb(0, 0, 0); fill: rgb(208, 2, 27); fill-opacity: 1;"/></g><g class="composite-shape"><path class="real" d=" M287,160 L327,160 L327,175 L287,175 Z" style="stroke-width: 1; stroke: rgb(0, 0, 0); fill: rgb(245, 166, 35); fill-opacity: 1;"/></g><g class="composite-shape"><path class="real" d=" M247,175 L287,175 L287,190 L247,190 Z" style="stroke-width: 1; stroke: rgb(0, 0, 0); fill: rgb(208, 2, 27); fill-opacity: 1;"/></g><g class="composite-shape"><path class="real" d=" M287,175 L327,175 L327,190 L287,190 Z" style="stroke-width: 1; stroke: rgb(0, 0, 0); fill: rgb(245, 166, 35); fill-opacity: 1;"/></g><g class="composite-shape"><path class="real" d=" M327,145 L367,145 L367,160 L327,160 Z" style="stroke-width: 1; stroke: rgb(0, 0, 0); fill: rgb(248, 231, 28); fill-opacity: 1;"/></g><g class="composite-shape"><path class="real" d=" M327,160 L367,160 L367,175 L327,175 Z" style="stroke-width: 1; stroke: rgb(0, 0, 0); fill: rgb(248, 231, 28); fill-opacity: 1;"/></g><g class="composite-shape"><path class="real" d=" M327,175 L367,175 L367,190 L327,190 Z" style="stroke-width: 1; stroke: rgb(0, 0, 0); fill: rgb(248, 231, 28); fill-opacity: 1;"/></g><g class="composite-shape"><path class="real" d=" M102,75 L142,75 L142,90 L102,90 Z" style="stroke-width: 1; stroke: rgb(0, 0, 0); fill: rgb(208, 2, 27); fill-opacity: 1;"/></g><g class="composite-shape"><path class="real" d=" M102,105 L142,105 L142,120 L102,120 Z" style="stroke-width: 1; stroke: rgb(0, 0, 0); fill: rgb(248, 231, 28); fill-opacity: 1;"/></g><g class="composite-shape"><path class="real" d=" M102,90 L142,90 L142,105 L102,105 Z" style="stroke-width: 1; stroke: rgb(0, 0, 0); fill: rgb(245, 166, 35); fill-opacity: 1;"/></g><g class="composite-shape"><path class="real" d=" M102,135 L142,135 L142,150 L102,150 Z" style="stroke-width: 1; stroke: rgb(0, 0, 0); fill: rgb(208, 2, 27); fill-opacity: 1;"/></g><g class="composite-shape"><path class="real" d=" M102,165 L142,165 L142,180 L102,180 Z" style="stroke-width: 1; stroke: rgb(0, 0, 0); fill: rgb(248, 231, 28); fill-opacity: 1;"/></g><g class="composite-shape"><path class="real" d=" M102,150 L142,150 L142,165 L102,165 Z" style="stroke-width: 1; stroke: rgb(0, 0, 0); fill: rgb(245, 166, 35); fill-opacity: 1;"/></g><g class="composite-shape"><path class="real" d=" M102,195 L142,195 L142,210 L102,210 Z" style="stroke-width: 1; stroke: rgb(0, 0, 0); fill: rgb(208, 2, 27); fill-opacity: 1;"/></g><g class="composite-shape"><path class="real" d=" M102,225 L142,225 L142,240 L102,240 Z" style="stroke-width: 1; stroke: rgb(0, 0, 0); fill: rgb(248, 231, 28); fill-opacity: 1;"/></g><g class="composite-shape"><path class="real" d=" M102,210 L142,210 L142,225 L102,225 Z" style="stroke-width: 1; stroke: rgb(0, 0, 0); fill: rgb(245, 166, 35); fill-opacity: 1;"/></g><g class="composite-shape"><path class="real" d=" M102,120 L142,120 L142,135 L102,135 Z" style="stroke-width: 1; stroke: rgb(0, 0, 0); fill: rgb(80, 227, 194); fill-opacity: 1;"/></g><g class="composite-shape"><path class="real" d=" M102,180 L142,180 L142,195 L102,195 Z" style="stroke-width: 1; stroke: rgb(0, 0, 0); fill: rgb(80, 227, 194); fill-opacity: 1;"/></g><g class="composite-shape"><path class="real" d=" M102,240 L142,240 L142,255 L102,255 Z" style="stroke-width: 1; stroke: rgb(0, 0, 0); fill: rgb(80, 227, 194); fill-opacity: 1;"/></g><g class="composite-shape"><path class="real" d=" M367,145 L407,145 L407,160 L367,160 Z" style="stroke-width: 1; stroke: rgb(0, 0, 0); fill: rgb(80, 227, 194); fill-opacity: 1;"/></g><g class="composite-shape"><path class="real" d=" M367,160 L407,160 L407,175 L367,175 Z" style="stroke-width: 1; stroke: rgb(0, 0, 0); fill: rgb(80, 227, 194); fill-opacity: 1;"/></g><g class="composite-shape"><path class="real" d=" M367,175 L407,175 L407,190 L367,190 Z" style="stroke-width: 1; stroke: rgb(0, 0, 0); fill: rgb(80, 227, 194); fill-opacity: 1;"/></g><g class="composite-shape"><defs><!-- react-text: 6903 --> <!-- /react-text --><pattern id="_pgfeupwog7co" x="0" y="0" width="11.313708498984761" height="11.313708498984761" patternTransform="rotate(45,0,0)" patternUnits="userSpaceOnUse"><path d="M0,0 L0,11.313708498984761" style="stroke: rgb(255, 2, 2); stroke-opacity: 1; stroke-width: 3; fill: none;"/><path d="M5.656854249492381,0 L5.656854249492381,11.313708498984761" style="stroke: rgb(255, 2, 2); stroke-opacity: 1; stroke-width: 3; fill: none;"/><path d="M11.313708498984761,0 L11.313708498984761,11.313708498984761" style="stroke: rgb(255, 2, 2); stroke-opacity: 1; stroke-width: 3; fill: none;"/></pattern></defs><path class="real" d=" M492,145 L532,145 L532,160 L492,160 Z" style="stroke-width: 1; stroke: rgb(0, 0, 0); fill: url(&quot;#_pgfeupwog7co&quot;); fill-opacity: 1;"/></g><g class="composite-shape"><defs><!-- react-text: 6911 --> <!-- /react-text --><pattern id="_pgfizull0yez" x="0" y="0" width="11.313708498984761" height="11.313708498984761" patternTransform="rotate(45,0,0)" patternUnits="userSpaceOnUse"><path d="M0,0 L0,11.313708498984761" style="stroke: rgb(245, 166, 35); stroke-opacity: 1; stroke-width: 3; fill: none;"/><path d="M5.656854249492381,0 L5.656854249492381,11.313708498984761" style="stroke: rgb(245, 166, 35); stroke-opacity: 1; stroke-width: 3; fill: none;"/><path d="M11.313708498984761,0 L11.313708498984761,11.313708498984761" style="stroke: rgb(245, 166, 35); stroke-opacity: 1; stroke-width: 3; fill: none;"/></pattern></defs><path class="real" d=" M532,145 L572,145 L572,160 L532,160 Z" style="stroke-width: 1; stroke: rgb(0, 0, 0); fill: url(&quot;#_pgfizull0yez&quot;); fill-opacity: 1;"/></g><g class="composite-shape"><defs><!-- react-text: 6919 --> <!-- /react-text --><pattern id="_pgfu5ck4o40w" x="0" y="0" width="11.313708498984761" height="11.313708498984761" patternTransform="rotate(45,0,0)" patternUnits="userSpaceOnUse"><path d="M0,0 L0,11.313708498984761" style="stroke: rgb(248, 231, 28); stroke-opacity: 1; stroke-width: 3; fill: none;"/><path d="M5.656854249492381,0 L5.656854249492381,11.313708498984761" style="stroke: rgb(248, 231, 28); stroke-opacity: 1; stroke-width: 3; fill: none;"/><path d="M11.313708498984761,0 L11.313708498984761,11.313708498984761" style="stroke: rgb(248, 231, 28); stroke-opacity: 1; stroke-width: 3; fill: none;"/></pattern></defs><path class="real" d=" M572,145 L612,145 L612,160 L572,160 Z" style="stroke-width: 1; stroke: rgb(0, 0, 0); fill: url(&quot;#_pgfu5ck4o40w&quot;); fill-opacity: 1;"/></g><g class="composite-shape"><defs><!-- react-text: 6927 --> <!-- /react-text --><pattern id="_pgfajlrwfcez" x="0" y="0" width="11.313708498984761" height="11.313708498984761" patternTransform="rotate(45,0,0)" patternUnits="userSpaceOnUse"><path d="M0,0 L0,11.313708498984761" style="stroke: rgb(80, 227, 194); stroke-opacity: 1; stroke-width: 3; fill: none;"/><path d="M5.656854249492381,0 L5.656854249492381,11.313708498984761" style="stroke: rgb(80, 227, 194); stroke-opacity: 1; stroke-width: 3; fill: none;"/><path d="M11.313708498984761,0 L11.313708498984761,11.313708498984761" style="stroke: rgb(80, 227, 194); stroke-opacity: 1; stroke-width: 3; fill: none;"/></pattern></defs><path class="real" d=" M612,145 L652,145 L652,160 L612,160 Z" style="stroke-width: 1; stroke: rgb(0, 0, 0); fill: url(&quot;#_pgfajlrwfcez&quot;); fill-opacity: 1;"/></g><g class="composite-shape"><path class="real" d=" M287,295 L302,295 L302,310 L287,310 Z" style="stroke-width: 1; stroke: rgb(0, 0, 0); fill: rgb(208, 2, 27); fill-opacity: 1;"/></g><g class="composite-shape"><path class="real" d=" M302,310 L317,310 L317,325 L302,325 Z" style="stroke-width: 1; stroke: rgb(0, 0, 0); fill: rgb(245, 166, 35); fill-opacity: 1;"/></g><g class="composite-shape"><path class="real" d=" M302,295 L317,295 L317,310 L302,310 Z" style="stroke-width: 1; stroke: rgb(0, 0, 0); fill: rgb(255, 255, 255); fill-opacity: 1;"/></g><g class="composite-shape"><path class="real" d=" M287,310 L302,310 L302,325 L287,325 Z" style="stroke-width: 1; stroke: rgb(0, 0, 0); fill: rgb(255, 255, 255); fill-opacity: 1;"/></g><g class="composite-shape"><path class="real" d=" M317,295 L332,295 L332,310 L317,310 Z" style="stroke-width: 1; stroke: rgb(0, 0, 0); fill: rgb(255, 255, 255); fill-opacity: 1;"/></g><g class="composite-shape"><path class="real" d=" M317,310 L332,310 L332,325 L317,325 Z" style="stroke-width: 1; stroke: rgb(0, 0, 0); fill: rgb(255, 255, 255); fill-opacity: 1;"/></g><g class="composite-shape"><path class="real" d=" M302,325 L317,325 L317,340 L302,340 Z" style="stroke-width: 1; stroke: rgb(0, 0, 0); fill: rgb(255, 255, 255); fill-opacity: 1;"/></g><g class="composite-shape"><path class="real" d=" M287,325 L302,325 L302,340 L287,340 Z" style="stroke-width: 1; stroke: rgb(0, 0, 0); fill: rgb(255, 255, 255); fill-opacity: 1;"/></g><g class="composite-shape"><path class="real" d=" M317,325 L332,325 L332,340 L317,340 Z" style="stroke-width: 1; stroke: rgb(0, 0, 0); fill: rgb(248, 231, 28); fill-opacity: 1;"/></g><g class="composite-shape"><path class="real" d=" M332,295 L347,295 L347,310 L332,310 Z" style="stroke-width: 1; stroke: rgb(0, 0, 0); fill: rgb(255, 255, 255); fill-opacity: 1;"/></g><g class="composite-shape"><path class="real" d=" M332,310 L347,310 L347,325 L332,325 Z" style="stroke-width: 1; stroke: rgb(0, 0, 0); fill: rgb(255, 255, 255); fill-opacity: 1;"/></g><g class="composite-shape"><path class="real" d=" M332,325 L347,325 L347,340 L332,340 Z" style="stroke-width: 1; stroke: rgb(0, 0, 0); fill: rgb(255, 255, 255); fill-opacity: 1;"/></g><g class="composite-shape"><path class="real" d=" M302,340 L317,340 L317,355 L302,355 Z" style="stroke-width: 1; stroke: rgb(0, 0, 0); fill: rgb(255, 255, 255); fill-opacity: 1;"/></g><g class="composite-shape"><path class="real" d=" M287,340 L302,340 L302,355 L287,355 Z" style="stroke-width: 1; stroke: rgb(0, 0, 0); fill: rgb(255, 255, 255); fill-opacity: 1;"/></g><g class="composite-shape"><path class="real" d=" M317,340 L332,340 L332,355 L317,355 Z" style="stroke-width: 1; stroke: rgb(0, 0, 0); fill: rgb(255, 255, 255); fill-opacity: 1;"/></g><g class="composite-shape"><path class="real" d=" M332,340 L347,340 L347,355 L332,355 Z" style="stroke-width: 1; stroke: rgb(0, 0, 0); fill: rgb(80, 227, 194); fill-opacity: 1;"/></g><g class="composite-shape"><path class="real" d=" M375,305 L417,305 L417,295 L445,315 L417,335 L417,325 L375,325 Z" style="stroke-width: 1; stroke: rgb(0, 0, 0); fill: rgb(255, 255, 255); fill-opacity: 1;"/></g><g class="composite-shape"><path class="real" d=" M475,205 L515,205 L515,220 L475,220 Z" style="stroke-width: 1; stroke: rgb(0, 0, 0); fill: rgb(255, 255, 255); fill-opacity: 1;"/></g><g class="composite-shape"><path class="real" d=" M475,235 L515,235 L515,250 L475,250 Z" style="stroke-width: 1; stroke: rgb(0, 0, 0); fill: rgb(255, 255, 255); fill-opacity: 1;"/></g><g class="composite-shape"><path class="real" d=" M475,220 L515,220 L515,235 L475,235 Z" style="stroke-width: 1; stroke: rgb(0, 0, 0); fill: rgb(255, 255, 255); fill-opacity: 1;"/></g><g class="composite-shape"><path class="real" d=" M475,265 L515,265 L515,280 L475,280 Z" style="stroke-width: 1; stroke: rgb(0, 0, 0); fill: rgb(255, 255, 255); fill-opacity: 1;"/></g><g class="composite-shape"><path class="real" d=" M475,295 L515,295 L515,310 L475,310 Z" style="stroke-width: 1; stroke: rgb(0, 0, 0); fill: rgb(255, 255, 255); fill-opacity: 1;"/></g><g class="composite-shape"><path class="real" d=" M475,280 L515,280 L515,295 L475,295 Z" style="stroke-width: 1; stroke: rgb(0, 0, 0); fill: rgb(255, 255, 255); fill-opacity: 1;"/></g><g class="composite-shape"><path class="real" d=" M475,325 L515,325 L515,340 L475,340 Z" style="stroke-width: 1; stroke: rgb(0, 0, 0); fill: rgb(255, 255, 255); fill-opacity: 1;"/></g><g class="composite-shape"><path class="real" d=" M475,355 L515,355 L515,370 L475,370 Z" style="stroke-width: 1; stroke: rgb(0, 0, 0); fill: rgb(255, 255, 255); fill-opacity: 1;"/></g><g class="composite-shape"><path class="real" d=" M475,340 L515,340 L515,355 L475,355 Z" style="stroke-width: 1; stroke: rgb(0, 0, 0); fill: rgb(255, 255, 255); fill-opacity: 1;"/></g><g class="composite-shape"><path class="real" d=" M475,250 L515,250 L515,265 L475,265 Z" style="stroke-width: 1; stroke: rgb(0, 0, 0); fill: rgb(255, 255, 255); fill-opacity: 1;"/></g><g class="composite-shape"><path class="real" d=" M475,310 L515,310 L515,325 L475,325 Z" style="stroke-width: 1; stroke: rgb(0, 0, 0); fill: rgb(255, 255, 255); fill-opacity: 1;"/></g><g class="composite-shape"><path class="real" d=" M475,370 L515,370 L515,385 L475,385 Z" style="stroke-width: 1; stroke: rgb(0, 0, 0); fill: rgb(255, 255, 255); fill-opacity: 1;"/></g><g class="composite-shape"><defs><!-- react-text: 6993 --> <!-- /react-text --><pattern id="_pgfcrbh8qqjv" x="0" y="0" width="11.313708498984761" height="11.313708498984761" patternTransform="rotate(45,0,0)" patternUnits="userSpaceOnUse"><path d="M0,0 L0,11.313708498984761" style="stroke: rgb(255, 2, 2); stroke-opacity: 1; stroke-width: 3; fill: none;"/><path d="M5.656854249492381,0 L5.656854249492381,11.313708498984761" style="stroke: rgb(255, 2, 2); stroke-opacity: 1; stroke-width: 3; fill: none;"/><path d="M11.313708498984761,0 L11.313708498984761,11.313708498984761" style="stroke: rgb(255, 2, 2); stroke-opacity: 1; stroke-width: 3; fill: none;"/></pattern></defs><path class="real" d=" M492,160 L532,160 L532,175 L492,175 Z" style="stroke-width: 1; stroke: rgb(0, 0, 0); fill: url(&quot;#_pgfcrbh8qqjv&quot;); fill-opacity: 1;"/></g><g class="composite-shape"><defs><!-- react-text: 7001 --> <!-- /react-text --><pattern id="_pgf8ybt1a39g" x="0" y="0" width="11.313708498984761" height="11.313708498984761" patternTransform="rotate(45,0,0)" patternUnits="userSpaceOnUse"><path d="M0,0 L0,11.313708498984761" style="stroke: rgb(255, 2, 2); stroke-opacity: 1; stroke-width: 3; fill: none;"/><path d="M5.656854249492381,0 L5.656854249492381,11.313708498984761" style="stroke: rgb(255, 2, 2); stroke-opacity: 1; stroke-width: 3; fill: none;"/><path d="M11.313708498984761,0 L11.313708498984761,11.313708498984761" style="stroke: rgb(255, 2, 2); stroke-opacity: 1; stroke-width: 3; fill: none;"/></pattern></defs><path class="real" d=" M492,175 L532,175 L532,190 L492,190 Z" style="stroke-width: 1; stroke: rgb(0, 0, 0); fill: url(&quot;#_pgf8ybt1a39g&quot;); fill-opacity: 1;"/></g><g class="composite-shape"><defs><!-- react-text: 7009 --> <!-- /react-text --><pattern id="_pgf6d975yxf2" x="0" y="0" width="11.313708498984761" height="11.313708498984761" patternTransform="rotate(45,0,0)" patternUnits="userSpaceOnUse"><path d="M0,0 L0,11.313708498984761" style="stroke: rgb(245, 166, 35); stroke-opacity: 1; stroke-width: 3; fill: none;"/><path d="M5.656854249492381,0 L5.656854249492381,11.313708498984761" style="stroke: rgb(245, 166, 35); stroke-opacity: 1; stroke-width: 3; fill: none;"/><path d="M11.313708498984761,0 L11.313708498984761,11.313708498984761" style="stroke: rgb(245, 166, 35); stroke-opacity: 1; stroke-width: 3; fill: none;"/></pattern></defs><path class="real" d=" M532,175 L572,175 L572,190 L532,190 Z" style="stroke-width: 1; stroke: rgb(0, 0, 0); fill: url(&quot;#_pgf6d975yxf2&quot;); fill-opacity: 1;"/></g><g class="composite-shape"><defs><!-- react-text: 7017 --> <!-- /react-text --><pattern id="_pgf3xs7uzzdk" x="0" y="0" width="11.313708498984761" height="11.313708498984761" patternTransform="rotate(45,0,0)" patternUnits="userSpaceOnUse"><path d="M0,0 L0,11.313708498984761" style="stroke: rgb(245, 166, 35); stroke-opacity: 1; stroke-width: 3; fill: none;"/><path d="M5.656854249492381,0 L5.656854249492381,11.313708498984761" style="stroke: rgb(245, 166, 35); stroke-opacity: 1; stroke-width: 3; fill: none;"/><path d="M11.313708498984761,0 L11.313708498984761,11.313708498984761" style="stroke: rgb(245, 166, 35); stroke-opacity: 1; stroke-width: 3; fill: none;"/></pattern></defs><path class="real" d=" M532,160 L572,160 L572,175 L532,175 Z" style="stroke-width: 1; stroke: rgb(0, 0, 0); fill: url(&quot;#_pgf3xs7uzzdk&quot;); fill-opacity: 1;"/></g><g class="composite-shape"><defs><!-- react-text: 7025 --> <!-- /react-text --><pattern id="_pgfcx58eds1y" x="0" y="0" width="11.313708498984761" height="11.313708498984761" patternTransform="rotate(45,0,0)" patternUnits="userSpaceOnUse"><path d="M0,0 L0,11.313708498984761" style="stroke: rgb(248, 231, 28); stroke-opacity: 1; stroke-width: 3; fill: none;"/><path d="M5.656854249492381,0 L5.656854249492381,11.313708498984761" style="stroke: rgb(248, 231, 28); stroke-opacity: 1; stroke-width: 3; fill: none;"/><path d="M11.313708498984761,0 L11.313708498984761,11.313708498984761" style="stroke: rgb(248, 231, 28); stroke-opacity: 1; stroke-width: 3; fill: none;"/></pattern></defs><path class="real" d=" M572,175 L612,175 L612,190 L572,190 Z" style="stroke-width: 1; stroke: rgb(0, 0, 0); fill: url(&quot;#_pgfcx58eds1y&quot;); fill-opacity: 1;"/></g><g class="composite-shape"><defs><!-- react-text: 7033 --> <!-- /react-text --><pattern id="_pgf8i8e4jl46" x="0" y="0" width="11.313708498984761" height="11.313708498984761" patternTransform="rotate(45,0,0)" patternUnits="userSpaceOnUse"><path d="M0,0 L0,11.313708498984761" style="stroke: rgb(248, 231, 28); stroke-opacity: 1; stroke-width: 3; fill: none;"/><path d="M5.656854249492381,0 L5.656854249492381,11.313708498984761" style="stroke: rgb(248, 231, 28); stroke-opacity: 1; stroke-width: 3; fill: none;"/><path d="M11.313708498984761,0 L11.313708498984761,11.313708498984761" style="stroke: rgb(248, 231, 28); stroke-opacity: 1; stroke-width: 3; fill: none;"/></pattern></defs><path class="real" d=" M572,160 L612,160 L612,175 L572,175 Z" style="stroke-width: 1; stroke: rgb(0, 0, 0); fill: url(&quot;#_pgf8i8e4jl46&quot;); fill-opacity: 1;"/></g><g class="composite-shape"><defs><!-- react-text: 7041 --> <!-- /react-text --><pattern id="_pgfeywyrc105" x="0" y="0" width="11.313708498984761" height="11.313708498984761" patternTransform="rotate(45,0,0)" patternUnits="userSpaceOnUse"><path d="M0,0 L0,11.313708498984761" style="stroke: rgb(80, 227, 194); stroke-opacity: 1; stroke-width: 3; fill: none;"/><path d="M5.656854249492381,0 L5.656854249492381,11.313708498984761" style="stroke: rgb(80, 227, 194); stroke-opacity: 1; stroke-width: 3; fill: none;"/><path d="M11.313708498984761,0 L11.313708498984761,11.313708498984761" style="stroke: rgb(80, 227, 194); stroke-opacity: 1; stroke-width: 3; fill: none;"/></pattern></defs><path class="real" d=" M612,160 L652,160 L652,175 L612,175 Z" style="stroke-width: 1; stroke: rgb(0, 0, 0); fill: url(&quot;#_pgfeywyrc105&quot;); fill-opacity: 1;"/></g><g class="composite-shape"><defs><!-- react-text: 7049 --> <!-- /react-text --><pattern id="_pgfymj1m16nu" x="0" y="0" width="11.313708498984761" height="11.313708498984761" patternTransform="rotate(45,0,0)" patternUnits="userSpaceOnUse"><path d="M0,0 L0,11.313708498984761" style="stroke: rgb(80, 227, 194); stroke-opacity: 1; stroke-width: 3; fill: none;"/><path d="M5.656854249492381,0 L5.656854249492381,11.313708498984761" style="stroke: rgb(80, 227, 194); stroke-opacity: 1; stroke-width: 3; fill: none;"/><path d="M11.313708498984761,0 L11.313708498984761,11.313708498984761" style="stroke: rgb(80, 227, 194); stroke-opacity: 1; stroke-width: 3; fill: none;"/></pattern></defs><path class="real" d=" M612,175 L652,175 L652,190 L612,190 Z" style="stroke-width: 1; stroke: rgb(0, 0, 0); fill: url(&quot;#_pgfymj1m16nu&quot;); fill-opacity: 1;"/></g><g class="composite-shape"><defs><!-- react-text: 7057 --> <!-- /react-text --><pattern id="_pgfgqcp9cf4h" x="0" y="0" width="11.313708498984761" height="11.313708498984761" patternTransform="rotate(45,0,0)" patternUnits="userSpaceOnUse"><path d="M0,0 L0,11.313708498984761" style="stroke: rgb(255, 2, 2); stroke-opacity: 1; stroke-width: 3; fill: none;"/><path d="M5.656854249492381,0 L5.656854249492381,11.313708498984761" style="stroke: rgb(255, 2, 2); stroke-opacity: 1; stroke-width: 3; fill: none;"/><path d="M11.313708498984761,0 L11.313708498984761,11.313708498984761" style="stroke: rgb(255, 2, 2); stroke-opacity: 1; stroke-width: 3; fill: none;"/></pattern></defs><path class="real" d=" M105,295 L145,295 L145,310 L105,310 Z" style="stroke-width: 1; stroke: rgb(0, 0, 0); fill: url(&quot;#_pgfgqcp9cf4h&quot;); fill-opacity: 1;"/></g><g class="composite-shape"><defs><!-- react-text: 7065 --> <!-- /react-text --><pattern id="_pgfl5iaxpc1b" x="0" y="0" width="11.313708498984761" height="11.313708498984761" patternTransform="rotate(45,0,0)" patternUnits="userSpaceOnUse"><path d="M0,0 L0,11.313708498984761" style="stroke: rgb(245, 166, 35); stroke-opacity: 1; stroke-width: 3; fill: none;"/><path d="M5.656854249492381,0 L5.656854249492381,11.313708498984761" style="stroke: rgb(245, 166, 35); stroke-opacity: 1; stroke-width: 3; fill: none;"/><path d="M11.313708498984761,0 L11.313708498984761,11.313708498984761" style="stroke: rgb(245, 166, 35); stroke-opacity: 1; stroke-width: 3; fill: none;"/></pattern></defs><path class="real" d=" M145,295 L185,295 L185,310 L145,310 Z" style="stroke-width: 1; stroke: rgb(0, 0, 0); fill: url(&quot;#_pgfl5iaxpc1b&quot;); fill-opacity: 1;"/></g><g class="composite-shape"><defs><!-- react-text: 7073 --> <!-- /react-text --><pattern id="_pgfl7mkwot20" x="0" y="0" width="11.313708498984761" height="11.313708498984761" patternTransform="rotate(45,0,0)" patternUnits="userSpaceOnUse"><path d="M0,0 L0,11.313708498984761" style="stroke: rgb(248, 231, 28); stroke-opacity: 1; stroke-width: 3; fill: none;"/><path d="M5.656854249492381,0 L5.656854249492381,11.313708498984761" style="stroke: rgb(248, 231, 28); stroke-opacity: 1; stroke-width: 3; fill: none;"/><path d="M11.313708498984761,0 L11.313708498984761,11.313708498984761" style="stroke: rgb(248, 231, 28); stroke-opacity: 1; stroke-width: 3; fill: none;"/></pattern></defs><path class="real" d=" M185,295 L225,295 L225,310 L185,310 Z" style="stroke-width: 1; stroke: rgb(0, 0, 0); fill: url(&quot;#_pgfl7mkwot20&quot;); fill-opacity: 1;"/></g><g class="composite-shape"><defs><!-- react-text: 7081 --> <!-- /react-text --><pattern id="_pgfol0b6fcl1" x="0" y="0" width="11.313708498984761" height="11.313708498984761" patternTransform="rotate(45,0,0)" patternUnits="userSpaceOnUse"><path d="M0,0 L0,11.313708498984761" style="stroke: rgb(80, 227, 194); stroke-opacity: 1; stroke-width: 3; fill: none;"/><path d="M5.656854249492381,0 L5.656854249492381,11.313708498984761" style="stroke: rgb(80, 227, 194); stroke-opacity: 1; stroke-width: 3; fill: none;"/><path d="M11.313708498984761,0 L11.313708498984761,11.313708498984761" style="stroke: rgb(80, 227, 194); stroke-opacity: 1; stroke-width: 3; fill: none;"/></pattern></defs><path class="real" d=" M225,295 L265,295 L265,310 L225,310 Z" style="stroke-width: 1; stroke: rgb(0, 0, 0); fill: url(&quot;#_pgfol0b6fcl1&quot;); fill-opacity: 1;"/></g><g class="composite-shape"><defs><!-- react-text: 7089 --> <!-- /react-text --><pattern id="_pgftrgts0v9y" x="0" y="0" width="11.313708498984761" height="11.313708498984761" patternTransform="rotate(45,0,0)" patternUnits="userSpaceOnUse"><path d="M0,0 L0,11.313708498984761" style="stroke: rgb(255, 2, 2); stroke-opacity: 1; stroke-width: 3; fill: none;"/><path d="M5.656854249492381,0 L5.656854249492381,11.313708498984761" style="stroke: rgb(255, 2, 2); stroke-opacity: 1; stroke-width: 3; fill: none;"/><path d="M11.313708498984761,0 L11.313708498984761,11.313708498984761" style="stroke: rgb(255, 2, 2); stroke-opacity: 1; stroke-width: 3; fill: none;"/></pattern></defs><path class="real" d=" M105,310 L145,310 L145,325 L105,325 Z" style="stroke-width: 1; stroke: rgb(0, 0, 0); fill: url(&quot;#_pgftrgts0v9y&quot;); fill-opacity: 1;"/></g><g class="composite-shape"><defs><!-- react-text: 7097 --> <!-- /react-text --><pattern id="_pgfpowkio864" x="0" y="0" width="11.313708498984761" height="11.313708498984761" patternTransform="rotate(45,0,0)" patternUnits="userSpaceOnUse"><path d="M0,0 L0,11.313708498984761" style="stroke: rgb(255, 2, 2); stroke-opacity: 1; stroke-width: 3; fill: none;"/><path d="M5.656854249492381,0 L5.656854249492381,11.313708498984761" style="stroke: rgb(255, 2, 2); stroke-opacity: 1; stroke-width: 3; fill: none;"/><path d="M11.313708498984761,0 L11.313708498984761,11.313708498984761" style="stroke: rgb(255, 2, 2); stroke-opacity: 1; stroke-width: 3; fill: none;"/></pattern></defs><path class="real" d=" M105,325 L145,325 L145,340 L105,340 Z" style="stroke-width: 1; stroke: rgb(0, 0, 0); fill: url(&quot;#_pgfpowkio864&quot;); fill-opacity: 1;"/></g><g class="composite-shape"><defs><!-- react-text: 7105 --> <!-- /react-text --><pattern id="_pgfybxjpkdbl" x="0" y="0" width="11.313708498984761" height="11.313708498984761" patternTransform="rotate(45,0,0)" patternUnits="userSpaceOnUse"><path d="M0,0 L0,11.313708498984761" style="stroke: rgb(245, 166, 35); stroke-opacity: 1; stroke-width: 3; fill: none;"/><path d="M5.656854249492381,0 L5.656854249492381,11.313708498984761" style="stroke: rgb(245, 166, 35); stroke-opacity: 1; stroke-width: 3; fill: none;"/><path d="M11.313708498984761,0 L11.313708498984761,11.313708498984761" style="stroke: rgb(245, 166, 35); stroke-opacity: 1; stroke-width: 3; fill: none;"/></pattern></defs><path class="real" d=" M145,325 L185,325 L185,340 L145,340 Z" style="stroke-width: 1; stroke: rgb(0, 0, 0); fill: url(&quot;#_pgfybxjpkdbl&quot;); fill-opacity: 1;"/></g><g class="composite-shape"><defs><!-- react-text: 7113 --> <!-- /react-text --><pattern id="_pgf54355z3pf" x="0" y="0" width="11.313708498984761" height="11.313708498984761" patternTransform="rotate(45,0,0)" patternUnits="userSpaceOnUse"><path d="M0,0 L0,11.313708498984761" style="stroke: rgb(245, 166, 35); stroke-opacity: 1; stroke-width: 3; fill: none;"/><path d="M5.656854249492381,0 L5.656854249492381,11.313708498984761" style="stroke: rgb(245, 166, 35); stroke-opacity: 1; stroke-width: 3; fill: none;"/><path d="M11.313708498984761,0 L11.313708498984761,11.313708498984761" style="stroke: rgb(245, 166, 35); stroke-opacity: 1; stroke-width: 3; fill: none;"/></pattern></defs><path class="real" d=" M145,310 L185,310 L185,325 L145,325 Z" style="stroke-width: 1; stroke: rgb(0, 0, 0); fill: url(&quot;#_pgf54355z3pf&quot;); fill-opacity: 1;"/></g><g class="composite-shape"><defs><!-- react-text: 7121 --> <!-- /react-text --><pattern id="_pgfwkrhi6xax" x="0" y="0" width="11.313708498984761" height="11.313708498984761" patternTransform="rotate(45,0,0)" patternUnits="userSpaceOnUse"><path d="M0,0 L0,11.313708498984761" style="stroke: rgb(248, 231, 28); stroke-opacity: 1; stroke-width: 3; fill: none;"/><path d="M5.656854249492381,0 L5.656854249492381,11.313708498984761" style="stroke: rgb(248, 231, 28); stroke-opacity: 1; stroke-width: 3; fill: none;"/><path d="M11.313708498984761,0 L11.313708498984761,11.313708498984761" style="stroke: rgb(248, 231, 28); stroke-opacity: 1; stroke-width: 3; fill: none;"/></pattern></defs><path class="real" d=" M185,325 L225,325 L225,340 L185,340 Z" style="stroke-width: 1; stroke: rgb(0, 0, 0); fill: url(&quot;#_pgfwkrhi6xax&quot;); fill-opacity: 1;"/></g><g class="composite-shape"><defs><!-- react-text: 7129 --> <!-- /react-text --><pattern id="_pgf3egze47hx" x="0" y="0" width="11.313708498984761" height="11.313708498984761" patternTransform="rotate(45,0,0)" patternUnits="userSpaceOnUse"><path d="M0,0 L0,11.313708498984761" style="stroke: rgb(248, 231, 28); stroke-opacity: 1; stroke-width: 3; fill: none;"/><path d="M5.656854249492381,0 L5.656854249492381,11.313708498984761" style="stroke: rgb(248, 231, 28); stroke-opacity: 1; stroke-width: 3; fill: none;"/><path d="M11.313708498984761,0 L11.313708498984761,11.313708498984761" style="stroke: rgb(248, 231, 28); stroke-opacity: 1; stroke-width: 3; fill: none;"/></pattern></defs><path class="real" d=" M185,310 L225,310 L225,325 L185,325 Z" style="stroke-width: 1; stroke: rgb(0, 0, 0); fill: url(&quot;#_pgf3egze47hx&quot;); fill-opacity: 1;"/></g><g class="composite-shape"><defs><!-- react-text: 7137 --> <!-- /react-text --><pattern id="_pgf6hrz2yt4l" x="0" y="0" width="11.313708498984761" height="11.313708498984761" patternTransform="rotate(45,0,0)" patternUnits="userSpaceOnUse"><path d="M0,0 L0,11.313708498984761" style="stroke: rgb(80, 227, 194); stroke-opacity: 1; stroke-width: 3; fill: none;"/><path d="M5.656854249492381,0 L5.656854249492381,11.313708498984761" style="stroke: rgb(80, 227, 194); stroke-opacity: 1; stroke-width: 3; fill: none;"/><path d="M11.313708498984761,0 L11.313708498984761,11.313708498984761" style="stroke: rgb(80, 227, 194); stroke-opacity: 1; stroke-width: 3; fill: none;"/></pattern></defs><path class="real" d=" M225,310 L265,310 L265,325 L225,325 Z" style="stroke-width: 1; stroke: rgb(0, 0, 0); fill: url(&quot;#_pgf6hrz2yt4l&quot;); fill-opacity: 1;"/></g><g class="composite-shape"><defs><!-- react-text: 7145 --> <!-- /react-text --><pattern id="_pgfxrxfwuv8d" x="0" y="0" width="11.313708498984761" height="11.313708498984761" patternTransform="rotate(45,0,0)" patternUnits="userSpaceOnUse"><path d="M0,0 L0,11.313708498984761" style="stroke: rgb(80, 227, 194); stroke-opacity: 1; stroke-width: 3; fill: none;"/><path d="M5.656854249492381,0 L5.656854249492381,11.313708498984761" style="stroke: rgb(80, 227, 194); stroke-opacity: 1; stroke-width: 3; fill: none;"/><path d="M11.313708498984761,0 L11.313708498984761,11.313708498984761" style="stroke: rgb(80, 227, 194); stroke-opacity: 1; stroke-width: 3; fill: none;"/></pattern></defs><path class="real" d=" M225,325 L265,325 L265,340 L225,340 Z" style="stroke-width: 1; stroke: rgb(0, 0, 0); fill: url(&quot;#_pgfxrxfwuv8d&quot;); fill-opacity: 1;"/></g><g/></g><g/><g/><g/></svg>
        <svg xmlns="http://www.w3.org/2000/svg" xmlns:xlink="http://www.w3.org/1999/xlink" width="660" height="408.931640625" style="width:660px;height:408.931640625px;font-family:Asana-Math, Asana;background:#FFF;"><g><g><g><text x="153.98504638671875" y="72.04061889648438" style="white-space:pre;stroke:none;fill:rgb(255,255,255);fill-opacity:1;font-size:18px;font-family:Arial, Helvetica, sans-serif;font-weight:700;font-style:normal;dominant-baseline:text-before-edge;text-decoration:none solid rgb(255, 255, 255);">1.</text></g><g><text x="168.9957275390625" y="74.775634765625" style="white-space:pre;stroke:none;fill:rgb(255,255,255);fill-opacity:1;font-size:15px;font-family:Arial, Helvetica, sans-serif;font-weight:400;font-style:normal;dominant-baseline:text-before-edge;text-decoration:none solid rgb(255, 255, 255);"> Transpose</text></g></g><g><g><text x="153.98504638671875" y="95.97222900390625" style="white-space:pre;stroke:none;fill:rgb(255,255,255);fill-opacity:1;font-size:15px;font-family:Arial, Helvetica, sans-serif;font-weight:400;font-style:normal;dominant-baseline:text-before-edge;text-decoration:none solid rgb(255, 255, 255);">Batched Stride</text></g></g></g><g><g><g><text x="401.9871826171875" y="72.04061889648438" style="white-space:pre;stroke:none;fill:rgb(255,255,255);fill-opacity:1;font-size:18px;font-family:Arial, Helvetica, sans-serif;font-weight:700;font-style:normal;dominant-baseline:text-before-edge;text-decoration:none solid rgb(255, 255, 255);">2. </text></g><g><text x="421.997802734375" y="74.775634765625" style="white-space:pre;stroke:none;fill:rgb(255,255,255);fill-opacity:1;font-size:15px;font-family:Arial, Helvetica, sans-serif;font-weight:400;font-style:normal;dominant-baseline:text-before-edge;text-decoration:none solid rgb(255, 255, 255);">Compute</text></g></g></g><g><g><g><g transform="matrix(1,0,0,1,401.9871826171875,113.99786376953125)"><path transform="matrix(0.017,0,0,-0.017,0,0)" d="M286 646L392 650C454 650 494 641 495 626L503 537L527 537C530 600 537 651 548 689C526 691 498 692 481 692L440 691L275 689L246 689C221 689 181 690 143 691L94 692L91 664L147 662C171 661 182 652 182 635C182 621 178 589 173 559L98 125C81 33 81 32 40 28L4 25L0 -3L34 -2C74 -1 106 0 127 0C145 0 174 -1 213 -2L265 -3L268 25L204 28C177 29 168 37 168 57C168 63 169 74 170 78L206 301L323 301C350 301 381 300 429 298L455 297L474 342L470 349C389 345 329 343 251 343L214 343L260 614C263 630 264 635 269 646ZM841 646L947 650C1009 650 1049 641 1050 626L1058 537L1082 537C1085 600 1092 651 1103 689C1081 691 1053 692 1036 692L995 691L830 689L801 689C776 689 736 690 698 691L649 692L646 664L702 662C726 661 737 652 737 635C737 621 733 589 728 559L653 125C636 33 636 32 595 28L559 25L555 -3L589 -2C629 -1 661 0 682 0C700 0 729 -1 768 -2L820 -3L823 25L759 28C732 29 723 37 723 57C723 63 724 74 725 78L761 301L878 301C905 301 936 300 984 298L1010 297L1029 342L1025 349C944 345 884 343 806 343L769 343L815 614C818 630 819 635 824 646ZM1500 646L1573 646C1651 646 1687 641 1690 629C1693 621 1695 602 1694 592L1690 528L1718 528L1745 692L1654 691C1566 690 1498 689 1463 689C1426 689 1362 690 1276 691L1181 692L1163 528L1192 528L1207 588C1212 610 1219 626 1225 633C1231 640 1269 646 1306 646L1418 646L1332 125C1316 34 1314 31 1274 28L1223 25L1219 -3L1276 -2C1316 -1 1345 0 1361 0C1380 0 1411 -1 1450 -2L1494 -3L1497 25L1438 28C1412 29 1402 37 1402 58C1402 67 1403 74 1406 93Z" stroke="rgb(255,255,255)" stroke-opacity="1" stroke-width="8" fill="rgb(255,255,255)" fill-opacity="1"></path></g></g><g><svg x="432.41455078125" overflow="visible" y="96.68804931640625" height="23.9957275390625" width="8.493590354919434"><path d=" M 6.27 1.70 c 0.00 -0.06 -0.04 -0.08 -0.08 -0.08 c -0.03 0.00 -0.06 0.01 -0.08 0.02 c -2.55 1.34 -4.65 3.73 -4.65 9.40 v 0.60 h 1.53 v -0.60 c 0.00 -3.23 0.64 -7.03 3.31 -9.06 c 0.12 -0.09 0.13 -0.19 0.13 -0.28 z   M 1.44 11.64 v 0.72 h 1.53 v -0.72 z" style="fill:rgb(255,255,255);fill-opacity:1;stroke-width:1px;stroke:none;stroke-opacity:1;"></path><path d=" M 6.27 22.30 c 0.00 0.06 -0.04 0.08 -0.08 0.08 c -0.03 0.00 -0.06 -0.01 -0.08 -0.02 c -2.55 -1.34 -4.65 -3.73 -4.65 -9.40 v -0.60 h 1.53 v 0.60 c 0.00 3.23 0.64 7.03 3.31 9.06 c 0.12 0.09 0.13 0.19 0.13 0.28 z" style="fill:rgb(255,255,255);fill-opacity:1;stroke-width:1px;stroke:none;stroke-opacity:1;"></path></svg></g><g><g transform="matrix(1,0,0,1,439.2093505859375,113.99786376953125)"><path transform="matrix(0.017,0,0,-0.017,0,0)" d="M730 103L704 86C675 67 653 56 643 56C636 56 630 65 630 76C630 86 632 95 637 116L712 413C716 430 719 446 719 454C719 471 709 482 693 482C664 482 626 464 565 421C502 376 467 341 418 272L448 409C452 429 455 444 455 451C455 470 445 482 429 482C399 482 353 460 298 418C254 384 234 363 169 275L202 408C206 424 208 439 208 451C208 470 199 482 185 482C164 482 126 461 52 408L24 388L31 368C68 391 103 414 110 414C121 414 128 404 128 389C128 338 87 145 46 2L49 -9L117 6L139 108C163 219 190 278 245 338C287 384 332 414 360 414C367 414 371 406 371 393C371 358 349 244 308 69L292 2L297 -9L366 6L387 113C403 194 437 269 481 318C536 379 586 414 618 414C626 414 631 405 631 389C631 365 628 351 606 264C566 105 550 84 550 31C550 6 561 -9 580 -9C606 -9 642 12 740 85Z" stroke="rgb(255,255,255)" stroke-opacity="1" stroke-width="8" fill="rgb(255,255,255)" fill-opacity="1"></path></g></g><g><g transform="matrix(1,0,0,1,452.4251708984375,113.99786376953125)"><path transform="matrix(0.017,0,0,-0.017,0,0)" d="M204 123C177 114 159 108 106 93C99 17 74 -48 16 -144L30 -155L71 -136C152 -31 190 32 218 109Z" stroke="rgb(255,255,255)" stroke-opacity="1" stroke-width="8" fill="rgb(255,255,255)" fill-opacity="1"></path></g></g><g><g transform="matrix(1,0,0,1,460.0640869140625,113.99786376953125)"><path transform="matrix(0.017,0,0,-0.017,0,0)" d="M354 664L410 662C434 661 445 653 445 635C445 621 441 589 436 559L361 125C345 34 343 32 303 28L262 25L258 -3L300 -2C347 0 366 0 390 0L487 -3L513 -3L516 25L467 28C440 30 431 38 431 58C431 67 432 76 435 93L536 648C565 654 585 656 612 656C699 656 745 617 745 543C745 448 667 378 563 378L519 378L516 367C650 172 681 124 756 -3C756 -3 841 0 841 0C842 0 856 -1 875 -3L888 -3L888 24C848 29 837 37 808 79L624 354C679 364 708 376 744 402C802 444 833 499 833 560C833 646 769 693 658 691L357 691Z" stroke="rgb(255,255,255)" stroke-opacity="1" stroke-width="8" fill="rgb(255,255,255)" fill-opacity="1"></path></g></g><g><g transform="matrix(1,0,0,1,475.61962890625,113.99786376953125)"><path transform="matrix(0.017,0,0,-0.017,0,0)" d="M204 123C177 114 159 108 106 93C99 17 74 -48 16 -144L30 -155L71 -136C152 -31 190 32 218 109Z" stroke="rgb(255,255,255)" stroke-opacity="1" stroke-width="8" fill="rgb(255,255,255)" fill-opacity="1"></path></g></g><g><g transform="matrix(1,0,0,1,483.258544921875,113.99786376953125)"><path transform="matrix(0.017,0,0,-0.017,0,0)" d="M665 25L665 -3C713 -1 758 0 800 0C840 0 885 -1 933 -3L933 25L908 27C867 30 854 37 840 61L669 368L890 620C920 653 929 659 955 662L983 664L983 692L869 689C857 689 843 689 754 692L754 664L787 662C819 660 832 655 832 643C832 632 827 623 809 601L648 405L544 604C535 622 530 634 530 642C530 654 543 660 573 662L610 664L610 692L564 691C523 690 493 689 477 689C460 689 430 690 389 691L344 692L344 664L370 662C419 657 431 650 451 613L597 343L359 61C344 43 321 31 297 28L269 25L269 -3C318 -1 359 0 394 0C430 0 470 -1 513 -3L513 25L481 28C443 32 426 38 426 50C426 58 430 67 436 75L618 306L737 80C746 62 751 49 751 40C751 32 744 29 719 29L703 28Z" stroke="rgb(255,255,255)" stroke-opacity="1" stroke-width="8" fill="rgb(255,255,255)" fill-opacity="1"></path></g></g><g><g><g><g><g transform="matrix(1,0,0,1,500.7264404296875,108.58804931640626)"><path transform="matrix(0.0119,0,0,-0.0119,0,0)" d="M684 520L684 579L65 579L65 520L345 520L345 0L404 0L404 520Z" stroke="rgb(255,255,255)" stroke-opacity="1" stroke-width="8" fill="rgb(255,255,255)" fill-opacity="1"></path></g></g></g></g></g><g><svg x="508.9422607421875" overflow="visible" y="96.68804931640625" height="23.9957275390625" width="8.493590354919434"><path d=" M 1.75 1.70 c 0.00 -0.06 0.04 -0.08 0.08 -0.08 c 0.03 0.00 0.06 0.01 0.08 0.02 c 2.55 1.34 4.65 3.73 4.65 9.40 v 0.60 h -1.53 v -0.60 c 0.00 -3.23 -0.64 -7.03 -3.31 -9.06 c -0.12 -0.09 -0.13 -0.19 -0.13 -0.28 z  M 6.58 11.64 v 0.72 h -1.53 v -0.72 z" style="fill:rgb(255,255,255);fill-opacity:1;stroke-width:1px;stroke:none;stroke-opacity:1;"></path><path d=" M 1.75 22.30 c 0.00 0.06 0.04 0.08 0.08 0.08 c 0.03 0.00 0.06 -0.01 0.08 -0.02 c 2.55 -1.34 4.65 -3.73 4.65 -9.40 v -0.60 h -1.53 v 0.60 c 0.00 3.23 -0.64 7.03 -3.31 9.06 c -0.12 0.09 -0.13 0.19 -0.13 0.28 z" style="fill:rgb(255,255,255);fill-opacity:1;stroke-width:1px;stroke:none;stroke-opacity:1;"></path></svg></g></g></g><g><g><g><text x="366.9871826171875" y="219.03848266601562" style="white-space:pre;stroke:none;fill:rgb(255,255,255);fill-opacity:1;font-size:18px;font-family:Arial, Helvetica, sans-serif;font-weight:700;font-style:normal;dominant-baseline:text-before-edge;text-decoration:none solid rgb(255, 255, 255);">4.</text></g><g><text x="381.99786376953125" y="221.77352905273438" style="white-space:pre;stroke:none;fill:rgb(255,255,255);fill-opacity:1;font-size:15px;font-family:Arial, Helvetica, sans-serif;font-weight:400;font-style:normal;dominant-baseline:text-before-edge;text-decoration:none solid rgb(255, 255, 255);"> Combine</text></g></g><g><g><text x="366.9871826171875" y="242.9700927734375" style="white-space:pre;stroke:none;fill:rgb(255,255,255);fill-opacity:1;font-size:15px;font-family:Arial, Helvetica, sans-serif;font-weight:400;font-style:normal;dominant-baseline:text-before-edge;text-decoration:none solid rgb(255, 255, 255);">     output</text></g></g></g><g><g><g><text x="18.98504638671875" y="247.04061889648438" style="white-space:pre;stroke:none;fill:rgb(255,255,255);fill-opacity:1;font-size:18px;font-family:Arial, Helvetica, sans-serif;font-weight:700;font-style:normal;dominant-baseline:text-before-edge;text-decoration:none solid rgb(255, 255, 255);">3.</text></g><g><text x="33.9957275390625" y="249.77566528320312" style="white-space:pre;stroke:none;fill:rgb(255,255,255);fill-opacity:1;font-size:15px;font-family:Arial, Helvetica, sans-serif;font-weight:400;font-style:normal;dominant-baseline:text-before-edge;text-decoration:none solid rgb(255, 255, 255);"> Scale by</text></g></g><g><g><text x="18.98504638671875" y="270.97222900390625" style="white-space:pre;stroke:none;fill:rgb(255,255,255);fill-opacity:1;font-size:15px;font-family:Arial, Helvetica, sans-serif;font-weight:400;font-style:normal;dominant-baseline:text-before-edge;text-decoration:none solid rgb(255, 255, 255);">    twiddle factors</text></g></g></g><g><g><g><g transform="matrix(1,0,0,1,114.98931884765625,66.30555725097656)"><path transform="matrix(0.017,0,0,-0.017,0,0)" d="M543 227C543 337 459 353 377 365C434 385 459 397 490 425C536 464 559 511 559 562C559 644 501 692 401 692C399 692 389 692 374 691L311 690C299 689 263 689 251 689C232 689 201 690 152 691L100 692L97 664L150 662C174 661 185 653 185 635C185 621 181 589 176 559L89 55C85 37 73 30 31 23L26 -3L63 -2C90 0 105 0 117 0C128 0 154 -1 180 -2L217 -3L237 -4C256 -5 269 -6 277 -6C392 -6 543 87 543 227ZM166 41L217 340L302 340C405 340 455 298 455 211C455 108 382 34 282 34C228 34 207 38 166 41ZM352 655C433 655 473 619 473 544C473 439 399 376 275 376L223 376L272 650C288 650 329 655 352 655Z" stroke="rgb(255,255,255)" stroke-opacity="1" stroke-width="8" fill="rgb(255,255,255)" fill-opacity="1"></path></g></g></g></g><g><g><g><g transform="matrix(1,0,0,1,33.98504638671875,171.30557250976562)"><path transform="matrix(0.017,0,0,-0.017,0,0)" d="M937 664L950 695C922 699 775 701 773 692L688 536L442 114L292 692C269 686 146 690 125 692L122 664L148 662C200 658 218 648 218 622C218 616 72 100 70 93C54 41 39 28 -16 23L-19 -3L20 -2C54 -1 79 0 93 0C107 0 133 -1 168 -2L203 -3L206 25L168 28C136 30 119 40 119 55C119 65 121 78 126 96L250 560L399 -18L422 -18L479 86L718 500L770 587L733 67C729 39 717 32 666 28L635 25L632 -3L679 -2C721 -1 751 0 766 0C782 0 812 -1 853 -2L899 -3L902 25L865 28C829 31 811 42 811 63L812 100L853 631C855 650 870 660 899 662Z" stroke="rgb(255,255,255)" stroke-opacity="1" stroke-width="8" fill="rgb(255,255,255)" fill-opacity="1"></path></g></g><g><g transform="matrix(1,0,0,1,55.2884521484375,171.30557250976562)"><path transform="matrix(0.017,0,0,-0.017,0,0)" d="M604 347L604 406L65 406L65 347ZM604 134L604 193L65 193L65 134Z" stroke="rgb(255,255,255)" stroke-opacity="1" stroke-width="8" fill="rgb(255,255,255)" fill-opacity="1"></path></g></g><g><g transform="matrix(1,0,0,1,71.741455078125,171.30557250976562)"><path transform="matrix(0.017,0,0,-0.017,0,0)" d="M730 103L704 86C675 67 653 56 643 56C636 56 630 65 630 76C630 86 632 95 637 116L712 413C716 430 719 446 719 454C719 471 709 482 693 482C664 482 626 464 565 421C502 376 467 341 418 272L448 409C452 429 455 444 455 451C455 470 445 482 429 482C399 482 353 460 298 418C254 384 234 363 169 275L202 408C206 424 208 439 208 451C208 470 199 482 185 482C164 482 126 461 52 408L24 388L31 368C68 391 103 414 110 414C121 414 128 404 128 389C128 338 87 145 46 2L49 -9L117 6L139 108C163 219 190 278 245 338C287 384 332 414 360 414C367 414 371 406 371 393C371 358 349 244 308 69L292 2L297 -9L366 6L387 113C403 194 437 269 481 318C536 379 586 414 618 414C626 414 631 405 631 389C631 365 628 351 606 264C566 105 550 84 550 31C550 6 561 -9 580 -9C606 -9 642 12 740 85ZM882 664L938 662C962 661 973 653 973 635C973 621 969 589 964 559L889 125C873 34 871 32 831 28L790 25L786 -3L828 -2C875 0 894 0 918 0L1015 -3L1041 -3L1044 25L995 28C968 30 959 38 959 58C959 67 960 76 963 93L1064 648C1093 654 1113 656 1140 656C1227 656 1273 617 1273 543C1273 448 1195 378 1091 378L1047 378L1044 367C1178 172 1209 124 1284 -3C1284 -3 1369 0 1369 0C1370 0 1384 -1 1403 -3L1416 -3L1416 24C1376 29 1365 37 1336 79L1152 354C1207 364 1236 376 1272 402C1330 444 1361 499 1361 560C1361 646 1297 693 1186 691L885 691Z" stroke="rgb(255,255,255)" stroke-opacity="1" stroke-width="8" fill="rgb(255,255,255)" fill-opacity="1"></path></g></g></g></g><g><g><g><g transform="matrix(1,0,0,1,228.98504638671875,171.30557250976562)"><path transform="matrix(0.017,0,0,-0.017,0,0)" d="M730 103L704 86C675 67 653 56 643 56C636 56 630 65 630 76C630 86 632 95 637 116L712 413C716 430 719 446 719 454C719 471 709 482 693 482C664 482 626 464 565 421C502 376 467 341 418 272L448 409C452 429 455 444 455 451C455 470 445 482 429 482C399 482 353 460 298 418C254 384 234 363 169 275L202 408C206 424 208 439 208 451C208 470 199 482 185 482C164 482 126 461 52 408L24 388L31 368C68 391 103 414 110 414C121 414 128 404 128 389C128 338 87 145 46 2L49 -9L117 6L139 108C163 219 190 278 245 338C287 384 332 414 360 414C367 414 371 406 371 393C371 358 349 244 308 69L292 2L297 -9L366 6L387 113C403 194 437 269 481 318C536 379 586 414 618 414C626 414 631 405 631 389C631 365 628 351 606 264C566 105 550 84 550 31C550 6 561 -9 580 -9C606 -9 642 12 740 85Z" stroke="rgb(255,255,255)" stroke-opacity="1" stroke-width="8" fill="rgb(255,255,255)" fill-opacity="1"></path></g></g></g></g><g><g><g><g transform="matrix(1,0,0,1,323.98504638671875,136.30557250976562)"><path transform="matrix(0.017,0,0,-0.017,0,0)" d="M105 664L161 662C185 661 196 653 196 635C196 621 192 589 187 559L112 125C96 34 94 32 54 28L13 25L9 -3L51 -2C98 0 117 0 141 0L238 -3L264 -3L267 25L218 28C191 30 182 38 182 58C182 67 183 76 186 93L287 648C316 654 336 656 363 656C450 656 496 617 496 543C496 448 418 378 314 378L270 378L267 367C401 172 432 124 507 -3C507 -3 592 0 592 0C593 0 607 -1 626 -3L639 -3L639 24C599 29 588 37 559 79L375 354C430 364 459 376 495 402C553 444 584 499 584 560C584 646 520 693 409 691L108 691Z" stroke="rgb(255,255,255)" stroke-opacity="1" stroke-width="8" fill="rgb(255,255,255)" fill-opacity="1"></path></g></g></g></g><g><g><g><text x="1.99786376953125" y="46.7200927734375" style="white-space:pre;stroke:none;fill:rgb(255,255,255);fill-opacity:1;font-size:21.6px;font-family:Arial, Helvetica, sans-serif;font-weight:700;font-style:normal;dominant-baseline:text-before-edge;text-decoration:none solid rgb(255, 255, 255);">0.</text></g><g><text x="20.0213623046875" y="52.873931884765625" style="white-space:pre;stroke:none;fill:rgb(255,255,255);fill-opacity:1;font-size:15px;font-family:Arial, Helvetica, sans-serif;font-weight:400;font-style:normal;dominant-baseline:text-before-edge;text-decoration:none solid rgb(255, 255, 255);"> Pack each</text></g></g><g><g><text x="1.99786376953125" y="75.43804931640625" style="white-space:pre;stroke:none;fill:rgb(255,255,255);fill-opacity:1;font-size:15px;font-family:Arial, Helvetica, sans-serif;font-weight:400;font-style:normal;dominant-baseline:text-before-edge;text-decoration:none solid rgb(255, 255, 255);">      row into</text></g></g><g><g><text x="1.99786376953125" y="95.95086669921875" style="white-space:pre;stroke:none;fill:rgb(255,255,255);fill-opacity:1;font-size:15px;font-family:Arial, Helvetica, sans-serif;font-weight:400;font-style:normal;dominant-baseline:text-before-edge;text-decoration:none solid rgb(255, 255, 255);">      vectorized</text></g></g><g><g><text x="1.99786376953125" y="116.46368408203125" style="white-space:pre;stroke:none;fill:rgb(255,255,255);fill-opacity:1;font-size:15px;font-family:Arial, Helvetica, sans-serif;font-weight:400;font-style:normal;dominant-baseline:text-before-edge;text-decoration:none solid rgb(255, 255, 255);">      types</text></g></g></g><g><g><g><g><g><g><g transform="matrix(1,0,0,1,224.98931884765625,30.301284790039062)"><path transform="matrix(0.017,0,0,-0.017,0,0)" d="M286 646L392 650C454 650 494 641 495 626L503 537L527 537C530 600 537 651 548 689C526 691 498 692 481 692L440 691L275 689L246 689C221 689 181 690 143 691L94 692L91 664L147 662C171 661 182 652 182 635C182 621 178 589 173 559L98 125C81 33 81 32 40 28L4 25L0 -3L34 -2C74 -1 106 0 127 0C145 0 174 -1 213 -2L265 -3L268 25L204 28C177 29 168 37 168 57C168 63 169 74 170 78L206 301L323 301C350 301 381 300 429 298L455 297L474 342L470 349C389 345 329 343 251 343L214 343L260 614C263 630 264 635 269 646ZM841 646L947 650C1009 650 1049 641 1050 626L1058 537L1082 537C1085 600 1092 651 1103 689C1081 691 1053 692 1036 692L995 691L830 689L801 689C776 689 736 690 698 691L649 692L646 664L702 662C726 661 737 652 737 635C737 621 733 589 728 559L653 125C636 33 636 32 595 28L559 25L555 -3L589 -2C629 -1 661 0 682 0C700 0 729 -1 768 -2L820 -3L823 25L759 28C732 29 723 37 723 57C723 63 724 74 725 78L761 301L878 301C905 301 936 300 984 298L1010 297L1029 342L1025 349C944 345 884 343 806 343L769 343L815 614C818 630 819 635 824 646ZM1500 646L1573 646C1651 646 1687 641 1690 629C1693 621 1695 602 1694 592L1690 528L1718 528L1745 692L1654 691C1566 690 1498 689 1463 689C1426 689 1362 690 1276 691L1181 692L1163 528L1192 528L1207 588C1212 610 1219 626 1225 633C1231 640 1269 646 1306 646L1418 646L1332 125C1316 34 1314 31 1274 28L1223 25L1219 -3L1276 -2C1316 -1 1345 0 1361 0C1380 0 1411 -1 1450 -2L1494 -3L1497 25L1438 28C1412 29 1402 37 1402 58C1402 67 1403 74 1406 93Z" stroke="rgb(255,255,255)" stroke-opacity="1" stroke-width="8" fill="rgb(255,255,255)" fill-opacity="1"></path></g></g><g><g transform="matrix(1,0,0,1,254.23077392578125,30.98504638671875)"><path transform="matrix(0.017,0,0,-0.017,0,0)" d="M146 266C146 526 243 632 301 700L282 726C225 675 60 542 60 266C60 159 85 58 133 -32C168 -99 200 -138 282 -215L301 -194C255 -137 146 -15 146 266Z" stroke="rgb(255,255,255)" stroke-opacity="1" stroke-width="8" fill="rgb(255,255,255)" fill-opacity="1"></path></g></g><g><g transform="matrix(1,0,0,1,259.8824462890625,30.301284790039062)"><path transform="matrix(0.017,0,0,-0.017,0,0)" d="M937 664L950 695C922 699 775 701 773 692L688 536L442 114L292 692C269 686 146 690 125 692L122 664L148 662C200 658 218 648 218 622C218 616 72 100 70 93C54 41 39 28 -16 23L-19 -3L20 -2C54 -1 79 0 93 0C107 0 133 -1 168 -2L203 -3L206 25L168 28C136 30 119 40 119 55C119 65 121 78 126 96L250 560L399 -18L422 -18L479 86L718 500L770 587L733 67C729 39 717 32 666 28L635 25L632 -3L679 -2C721 -1 751 0 766 0C782 0 812 -1 853 -2L899 -3L902 25L865 28C829 31 811 42 811 63L812 100L853 631C855 650 870 660 899 662Z" stroke="rgb(255,255,255)" stroke-opacity="1" stroke-width="8" fill="rgb(255,255,255)" fill-opacity="1"></path></g></g><g><g transform="matrix(1,0,0,1,276.0897216796875,30.301284790039062)"><path transform="matrix(0.017,0,0,-0.017,0,0)" d="M204 123C177 114 159 108 106 93C99 17 74 -48 16 -144L30 -155L71 -136C152 -31 190 32 218 109Z" stroke="rgb(255,255,255)" stroke-opacity="1" stroke-width="8" fill="rgb(255,255,255)" fill-opacity="1"></path></g></g><g><g transform="matrix(1,0,0,1,283.7286376953125,30.301284790039062)"><path transform="matrix(0.017,0,0,-0.017,0,0)" d="M667 -3L667 27L615 30C560 33 550 44 550 96L550 700L309 598L316 548L466 614L466 96C466 44 455 33 401 30L345 27L345 -3C499 0 499 0 510 0C541 0 651 -3 667 -3Z" stroke="rgb(255,255,255)" stroke-opacity="1" stroke-width="8" fill="rgb(255,255,255)" fill-opacity="1"></path></g></g><g><g transform="matrix(1,0,0,1,296.4530029296875,30.301284790039062)"><path transform="matrix(0.017,0,0,-0.017,0,0)" d="M204 123C177 114 159 108 106 93C99 17 74 -48 16 -144L30 -155L71 -136C152 -31 190 32 218 109Z" stroke="rgb(255,255,255)" stroke-opacity="1" stroke-width="8" fill="rgb(255,255,255)" fill-opacity="1"></path></g></g><g><g transform="matrix(1,0,0,1,304.09185791015625,30.301284790039062)"><path transform="matrix(0.017,0,0,-0.017,0,0)" d="M665 25L665 -3C713 -1 758 0 800 0C840 0 885 -1 933 -3L933 25L908 27C867 30 854 37 840 61L669 368L890 620C920 653 929 659 955 662L983 664L983 692L869 689C857 689 843 689 754 692L754 664L787 662C819 660 832 655 832 643C832 632 827 623 809 601L648 405L544 604C535 622 530 634 530 642C530 654 543 660 573 662L610 664L610 692L564 691C523 690 493 689 477 689C460 689 430 690 389 691L344 692L344 664L370 662C419 657 431 650 451 613L597 343L359 61C344 43 321 31 297 28L269 25L269 -3C318 -1 359 0 394 0C430 0 470 -1 513 -3L513 25L481 28C443 32 426 38 426 50C426 58 430 67 436 75L618 306L737 80C746 62 751 49 751 40C751 32 744 29 719 29L703 28Z" stroke="rgb(255,255,255)" stroke-opacity="1" stroke-width="8" fill="rgb(255,255,255)" fill-opacity="1"></path></g></g><g><g transform="matrix(1,0,0,1,320.58758544921875,30.98504638671875)"><path transform="matrix(0.017,0,0,-0.017,0,0)" d="M51 726L32 700C87 636 187 526 187 266C187 -10 83 -131 32 -194L51 -215C104 -165 273 -23 273 265C273 542 108 675 51 726Z" stroke="rgb(255,255,255)" stroke-opacity="1" stroke-width="8" fill="rgb(255,255,255)" fill-opacity="1"></path></g></g><g><g transform="matrix(1,0,0,1,326.23931884765625,30.301284790039062)"><path transform="matrix(0.017,0,0,-0.017,0,0)" d="M204 123C177 114 159 108 106 93C99 17 74 -48 16 -144L30 -155L71 -136C152 -31 190 32 218 109Z" stroke="rgb(255,255,255)" stroke-opacity="1" stroke-width="8" fill="rgb(255,255,255)" fill-opacity="1"></path></g></g></g></g></g><g><text x="333.878173828125" y="16.7200927734375" style="white-space:pre;stroke:none;fill:rgb(255,255,255);fill-opacity:1;font-size:15px;font-family:Arial, Helvetica, sans-serif;font-weight:400;font-style:normal;dominant-baseline:text-before-edge;text-decoration:none solid rgb(255, 255, 255);"> </text></g><g><g><g><g><g transform="matrix(1,0,0,1,338.04486083984375,30.301284790039062)"><path transform="matrix(0.017,0,0,-0.017,0,0)" d="M416 25L416 -3C464 -1 509 0 551 0C591 0 636 -1 684 -3L684 25L659 27C618 30 605 37 591 61L420 368L641 620C671 653 680 659 706 662L734 664L734 692L620 689C608 689 594 689 505 692L505 664L538 662C570 660 583 655 583 643C583 632 578 623 560 601L399 405L295 604C286 622 281 634 281 642C281 654 294 660 324 662L361 664L361 692L315 691C274 690 244 689 228 689C211 689 181 690 140 691L95 692L95 664L121 662C170 657 182 650 202 613L348 343L110 61C95 43 72 31 48 28L20 25L20 -3C69 -1 110 0 145 0C181 0 221 -1 264 -3L264 25L232 28C194 32 177 38 177 50C177 58 181 67 187 75L369 306L488 80C497 62 502 49 502 40C502 32 495 29 470 29L454 28Z" stroke="rgb(255,255,255)" stroke-opacity="1" stroke-width="8" fill="rgb(255,255,255)" fill-opacity="1"></path></g></g><g><g transform="matrix(1,0,0,1,355.40594482421875,30.301284790039062)"><path transform="matrix(0.017,0,0,-0.017,0,0)" d="M509 8L509 61L309 61C215 61 122 139 109 244L492 244L492 297L109 297C121 397 204 480 309 480L509 480L509 533L314 533C167 533 55 411 55 271C55 131 167 8 314 8Z" stroke="rgb(255,255,255)" stroke-opacity="1" stroke-width="8" fill="rgb(255,255,255)" fill-opacity="1"></path></g></g><g><g transform="matrix(1,0,0,1,370.07476806640625,30.301284790039062)"><path transform="matrix(0.017,0,0,-0.017,0,0)" d="M402 371C393 371 384 371 375 372L369 360L646 -3C669 -2 691 0 714 0C737 0 760 -2 786 -3L786 27C762 29 740 34 725 53L498 349C595 368 693 433 693 542C693 612 653 692 502 692L22 692L22 662L66 659C107 656 117 648 117 569L117 120C117 41 107 31 66 29L22 27L22 -3C22 -3 77 0 236 0C282 0 380 -1 432 -3L432 27L384 29C340 31 333 41 333 120L333 642C361 649 389 654 435 654C513 654 593 624 593 516C593 458 552 371 402 371ZM195 31C168 31 163 46 163 120L163 569C163 643 169 655 196 658C234 654 238 647 238 569L238 120C238 45 233 31 195 31Z" stroke="rgb(255,255,255)" stroke-opacity="1" stroke-width="8" fill="rgb(255,255,255)" fill-opacity="1"></path></g></g><g><g><g><g><g transform="matrix(1,0,0,1,384.38031005859375,24.891455078125)"><path transform="matrix(0.0119,0,0,-0.0119,0,0)" d="M730 103L704 86C675 67 653 56 643 56C636 56 630 65 630 76C630 86 632 95 637 116L712 413C716 430 719 446 719 454C719 471 709 482 693 482C664 482 626 464 565 421C502 376 467 341 418 272L448 409C452 429 455 444 455 451C455 470 445 482 429 482C399 482 353 460 298 418C254 384 234 363 169 275L202 408C206 424 208 439 208 451C208 470 199 482 185 482C164 482 126 461 52 408L24 388L31 368C68 391 103 414 110 414C121 414 128 404 128 389C128 338 87 145 46 2L49 -9L117 6L139 108C163 219 190 278 245 338C287 384 332 414 360 414C367 414 371 406 371 393C371 358 349 244 308 69L292 2L297 -9L366 6L387 113C403 194 437 269 481 318C536 379 586 414 618 414C626 414 631 405 631 389C631 365 628 351 606 264C566 105 550 84 550 31C550 6 561 -9 580 -9C606 -9 642 12 740 85ZM882 664L938 662C962 661 973 653 973 635C973 621 969 589 964 559L889 125C873 34 871 32 831 28L790 25L786 -3L828 -2C875 0 894 0 918 0L1015 -3L1041 -3L1044 25L995 28C968 30 959 38 959 58C959 67 960 76 963 93L1064 648C1093 654 1113 656 1140 656C1227 656 1273 617 1273 543C1273 448 1195 378 1091 378L1047 378L1044 367C1178 172 1209 124 1284 -3C1284 -3 1369 0 1369 0C1370 0 1384 -1 1403 -3L1416 -3L1416 24C1376 29 1365 37 1336 79L1152 354C1207 364 1236 376 1272 402C1330 444 1361 499 1361 560C1361 646 1297 693 1186 691L885 691ZM2054 37L1819 271L2054 505L2011 547L1778 313L1544 547L1502 505L1736 271L1502 37L1544 -5L1778 229L2011 -5ZM2654 227C2654 337 2570 353 2488 365C2545 385 2570 397 2601 425C2647 464 2670 511 2670 562C2670 644 2612 692 2512 692C2510 692 2500 692 2485 691L2422 690C2410 689 2374 689 2362 689C2343 689 2312 690 2263 691L2211 692L2208 664L2261 662C2285 661 2296 653 2296 635C2296 621 2292 589 2287 559L2200 55C2196 37 2184 30 2142 23L2137 -3L2174 -2C2201 0 2216 0 2228 0C2239 0 2265 -1 2291 -2L2328 -3L2348 -4C2367 -5 2380 -6 2388 -6C2503 -6 2654 87 2654 227ZM2277 41L2328 340L2413 340C2516 340 2566 298 2566 211C2566 108 2493 34 2393 34C2339 34 2318 38 2277 41ZM2463 655C2544 655 2584 619 2584 544C2584 439 2510 376 2386 376L2334 376L2383 650C2399 650 2440 655 2463 655Z" stroke="rgb(255,255,255)" stroke-opacity="1" stroke-width="8" fill="rgb(255,255,255)" fill-opacity="1"></path></g></g></g></g></g><g><g transform="matrix(1,0,0,1,417.7777099609375,30.301284790039062)"><path transform="matrix(0.017,0,0,-0.017,0,0)" d="" stroke="rgb(255,255,255)" stroke-opacity="1" stroke-width="8" fill="rgb(255,255,255)" fill-opacity="1"></path></g></g></g></g></g></g></g><g><g><g><g transform="matrix(1,0,0,1,311.9871826171875,286.3055725097656)"><path transform="matrix(0.017,0,0,-0.017,0,0)" d="M105 664L161 662C185 661 196 653 196 635C196 621 192 589 187 559L112 125C96 34 94 32 54 28L13 25L9 -3L51 -2C98 0 117 0 141 0L238 -3L264 -3L267 25L218 28C191 30 182 38 182 58C182 67 183 76 186 93L287 648C316 654 336 656 363 656C450 656 496 617 496 543C496 448 418 378 314 378L270 378L267 367C401 172 432 124 507 -3C507 -3 592 0 592 0C593 0 607 -1 626 -3L639 -3L639 24C599 29 588 37 559 79L375 354C430 364 459 376 495 402C553 444 584 499 584 560C584 646 520 693 409 691L108 691Z" stroke="rgb(255,255,255)" stroke-opacity="1" stroke-width="8" fill="rgb(255,255,255)" fill-opacity="1"></path></g></g></g></g><g><g><g><g transform="matrix(1,0,0,1,356.9871826171875,331.3055725097656)"><path transform="matrix(0.017,0,0,-0.017,0,0)" d="M105 664L161 662C185 661 196 653 196 635C196 621 192 589 187 559L112 125C96 34 94 32 54 28L13 25L9 -3L51 -2C98 0 117 0 141 0L238 -3L264 -3L267 25L218 28C191 30 182 38 182 58C182 67 183 76 186 93L287 648C316 654 336 656 363 656C450 656 496 617 496 543C496 448 418 378 314 378L270 378L267 367C401 172 432 124 507 -3C507 -3 592 0 592 0C593 0 607 -1 626 -3L639 -3L639 24C599 29 588 37 559 79L375 354C430 364 459 376 495 402C553 444 584 499 584 560C584 646 520 693 409 691L108 691Z" stroke="rgb(255,255,255)" stroke-opacity="1" stroke-width="8" fill="rgb(255,255,255)" fill-opacity="1"></path></g></g></g></g><g><g><g><g transform="matrix(1,0,0,1,357.991455078125,283.3034362792969)"><path transform="matrix(0.017,0,0,-0.017,0,0)" d="M286 646L392 650C454 650 494 641 495 626L503 537L527 537C530 600 537 651 548 689C526 691 498 692 481 692L440 691L275 689L246 689C221 689 181 690 143 691L94 692L91 664L147 662C171 661 182 652 182 635C182 621 178 589 173 559L98 125C81 33 81 32 40 28L4 25L0 -3L34 -2C74 -1 106 0 127 0C145 0 174 -1 213 -2L265 -3L268 25L204 28C177 29 168 37 168 57C168 63 169 74 170 78L206 301L323 301C350 301 381 300 429 298L455 297L474 342L470 349C389 345 329 343 251 343L214 343L260 614C263 630 264 635 269 646ZM841 646L947 650C1009 650 1049 641 1050 626L1058 537L1082 537C1085 600 1092 651 1103 689C1081 691 1053 692 1036 692L995 691L830 689L801 689C776 689 736 690 698 691L649 692L646 664L702 662C726 661 737 652 737 635C737 621 733 589 728 559L653 125C636 33 636 32 595 28L559 25L555 -3L589 -2C629 -1 661 0 682 0C700 0 729 -1 768 -2L820 -3L823 25L759 28C732 29 723 37 723 57C723 63 724 74 725 78L761 301L878 301C905 301 936 300 984 298L1010 297L1029 342L1025 349C944 345 884 343 806 343L769 343L815 614C818 630 819 635 824 646ZM1500 646L1573 646C1651 646 1687 641 1690 629C1693 621 1695 602 1694 592L1690 528L1718 528L1745 692L1654 691C1566 690 1498 689 1463 689C1426 689 1362 690 1276 691L1181 692L1163 528L1192 528L1207 588C1212 610 1219 626 1225 633C1231 640 1269 646 1306 646L1418 646L1332 125C1316 34 1314 31 1274 28L1223 25L1219 -3L1276 -2C1316 -1 1345 0 1361 0C1380 0 1411 -1 1450 -2L1494 -3L1497 25L1438 28C1412 29 1402 37 1402 58C1402 67 1403 74 1406 93Z" stroke="rgb(255,255,255)" stroke-opacity="1" stroke-width="8" fill="rgb(255,255,255)" fill-opacity="1"></path></g></g><g><g transform="matrix(1,0,0,1,387.23291015625,283.9871826171875)"><path transform="matrix(0.017,0,0,-0.017,0,0)" d="M146 266C146 526 243 632 301 700L282 726C225 675 60 542 60 266C60 159 85 58 133 -32C168 -99 200 -138 282 -215L301 -194C255 -137 146 -15 146 266Z" stroke="rgb(255,255,255)" stroke-opacity="1" stroke-width="8" fill="rgb(255,255,255)" fill-opacity="1"></path></g></g><g><g transform="matrix(1,0,0,1,392.8846435546875,283.3034362792969)"><path transform="matrix(0.017,0,0,-0.017,0,0)" d="M105 664L161 662C185 661 196 653 196 635C196 621 192 589 187 559L112 125C96 34 94 32 54 28L13 25L9 -3L51 -2C98 0 117 0 141 0L238 -3L264 -3L267 25L218 28C191 30 182 38 182 58C182 67 183 76 186 93L287 648C316 654 336 656 363 656C450 656 496 617 496 543C496 448 418 378 314 378L270 378L267 367C401 172 432 124 507 -3C507 -3 592 0 592 0C593 0 607 -1 626 -3L639 -3L639 24C599 29 588 37 559 79L375 354C430 364 459 376 495 402C553 444 584 499 584 560C584 646 520 693 409 691L108 691Z" stroke="rgb(255,255,255)" stroke-opacity="1" stroke-width="8" fill="rgb(255,255,255)" fill-opacity="1"></path></g></g><g><g transform="matrix(1,0,0,1,404.2093505859375,283.3034362792969)"><path transform="matrix(0.017,0,0,-0.017,0,0)" d="M204 123C177 114 159 108 106 93C99 17 74 -48 16 -144L30 -155L71 -136C152 -31 190 32 218 109Z" stroke="rgb(255,255,255)" stroke-opacity="1" stroke-width="8" fill="rgb(255,255,255)" fill-opacity="1"></path></g></g><g><g transform="matrix(1,0,0,1,411.8482666015625,283.3034362792969)"><path transform="matrix(0.017,0,0,-0.017,0,0)" d="M979 103L953 86C924 67 902 56 892 56C885 56 879 65 879 76C879 86 881 95 886 116L961 413C965 430 968 446 968 454C968 471 958 482 942 482C913 482 875 464 814 421C751 376 716 341 667 272L697 409C701 429 704 444 704 451C704 470 694 482 678 482C648 482 602 460 547 418C503 384 483 363 418 275L451 408C455 424 457 439 457 451C457 470 448 482 434 482C413 482 375 461 301 408L273 388L280 368C317 391 352 414 359 414C370 414 377 404 377 389C377 338 336 145 295 2L298 -9L366 6L388 108C412 219 439 278 494 338C536 384 581 414 609 414C616 414 620 406 620 393C620 358 598 244 557 69L541 2L546 -9L615 6L636 113C652 194 686 269 730 318C785 379 835 414 867 414C875 414 880 405 880 389C880 365 877 351 855 264C815 105 799 84 799 31C799 6 810 -9 829 -9C855 -9 891 12 989 85Z" stroke="rgb(255,255,255)" stroke-opacity="1" stroke-width="8" fill="rgb(255,255,255)" fill-opacity="1"></path></g></g><g><g transform="matrix(1,0,0,1,429.2947998046875,283.3034362792969)"><path transform="matrix(0.017,0,0,-0.017,0,0)" d="M204 123C177 114 159 108 106 93C99 17 74 -48 16 -144L30 -155L71 -136C152 -31 190 32 218 109Z" stroke="rgb(255,255,255)" stroke-opacity="1" stroke-width="8" fill="rgb(255,255,255)" fill-opacity="1"></path></g></g><g><g transform="matrix(1,0,0,1,436.9337158203125,283.3034362792969)"><path transform="matrix(0.017,0,0,-0.017,0,0)" d="M665 25L665 -3C713 -1 758 0 800 0C840 0 885 -1 933 -3L933 25L908 27C867 30 854 37 840 61L669 368L890 620C920 653 929 659 955 662L983 664L983 692L869 689C857 689 843 689 754 692L754 664L787 662C819 660 832 655 832 643C832 632 827 623 809 601L648 405L544 604C535 622 530 634 530 642C530 654 543 660 573 662L610 664L610 692L564 691C523 690 493 689 477 689C460 689 430 690 389 691L344 692L344 664L370 662C419 657 431 650 451 613L597 343L359 61C344 43 321 31 297 28L269 25L269 -3C318 -1 359 0 394 0C430 0 470 -1 513 -3L513 25L481 28C443 32 426 38 426 50C426 58 430 67 436 75L618 306L737 80C746 62 751 49 751 40C751 32 744 29 719 29L703 28Z" stroke="rgb(255,255,255)" stroke-opacity="1" stroke-width="8" fill="rgb(255,255,255)" fill-opacity="1"></path></g></g><g><g transform="matrix(1,0,0,1,453.429443359375,283.9871826171875)"><path transform="matrix(0.017,0,0,-0.017,0,0)" d="M51 726L32 700C87 636 187 526 187 266C187 -10 83 -131 32 -194L51 -215C104 -165 273 -23 273 265C273 542 108 675 51 726Z" stroke="rgb(255,255,255)" stroke-opacity="1" stroke-width="8" fill="rgb(255,255,255)" fill-opacity="1"></path></g></g></g></g></svg>
</svg>
