<svg xmlns="http://www.w3.org/2000/svg" xmlns:xlink="http://www.w3.org/1999/xlink" x="0" y="0" width="661.9871826171875" height="417.4359130859375" style="
        width:661.9871826171875px;
        height:417.4359130859375px;
        fill: none;
">
        <svg xmlns="http://www.w3.org/2000/svg" class="role-diagram-draw-area"><g class="shapes-region" style="stroke: black; fill: none;"><g class="arrow-line"><path class="connection real" stroke-dasharray="9 6" d="  M337.9,233.5 L337.9,63.5" style="stroke: rgb(0, 0, 0); stroke-width: 3; fill: none; fill-opacity: 1;"/></g><g class="composite-shape"><path class="real" d=" M8.5,133.5 L158.5,133.5 L158.5,283.5 L8.5,283.5 Z" style="stroke-width: 1; stroke: rgb(0, 0, 0); fill: rgb(255, 255, 255); fill-opacity: 1;"/></g><g class="arrow-line"><path class="connection real" stroke-dasharray="" d="  M158.5,133.5 L218.5,83.5" style="stroke: rgb(0, 0, 0); stroke-width: 1; fill: none; fill-opacity: 1;"/></g><g class="arrow-line"><path class="connection real" stroke-dasharray="" d="  M158.5,283.5 L218.5,233.5" style="stroke: rgb(0, 0, 0); stroke-width: 1; fill: none; fill-opacity: 1;"/></g><g class="composite-shape"><path class="real" d=" M218.5,233.54 L218.5,83.5 L158.5,133.46 L158.5,283.5 Z" style="stroke-width: 1; stroke: rgb(0, 0, 0); fill: rgb(255, 255, 255); fill-opacity: 1;"/></g><g class="composite-shape"><path class="real" d=" M69.1,83.5 L218.5,83.5 L157.9,133.5 L8.5,133.5 Z" style="stroke-width: 1; stroke: rgb(0, 0, 0); fill: rgb(255, 255, 255); fill-opacity: 1;"/></g><g class="composite-shape"><path class="real" d=" M280,113.5 L301.43,113.5 L301.43,136 L280,136 Z" style="stroke-width: 1; stroke: rgb(0, 0, 0); fill: rgb(255, 3, 3); fill-opacity: 1;"/></g><g class="arrow-line"><path class="connection real" stroke-dasharray="" d="  M301.43,113.5 L310,106" style="stroke: rgb(0, 0, 0); stroke-width: 1; fill: rgb(255, 3, 3); fill-opacity: 1;"/></g><g class="arrow-line"><path class="connection real" stroke-dasharray="" d="  M301.43,136 L310,128.5" style="stroke: rgb(0, 0, 0); stroke-width: 1; fill: rgb(255, 3, 3); fill-opacity: 1;"/></g><g class="composite-shape"><path class="real" d=" M310,128.51 L310,106 L301.43,113.49 L301.43,136 Z" style="stroke-width: 1; stroke: rgb(0, 0, 0); fill: rgb(255, 3, 3); fill-opacity: 1;"/></g><g class="composite-shape"><path class="real" d=" M288.66,106 L310,106 L301.34,113.5 L280,113.5 Z" style="stroke-width: 1; stroke: rgb(0, 0, 0); fill: rgb(255, 3, 3); fill-opacity: 1;"/></g><g class="composite-shape"><path class="real" d=" M321,139.69 L337.55,139.69 L337.55,158.26 L321,158.26 Z" style="stroke-width: 1; stroke: rgb(0, 0, 0); fill: rgb(255, 3, 3); fill-opacity: 1;"/></g><g class="arrow-line"><path class="connection real" stroke-dasharray="" d="  M337.55,139.69 L344.17,133.5" style="stroke: rgb(0, 0, 0); stroke-width: 1; fill: rgb(255, 3, 3); fill-opacity: 1;"/></g><g class="arrow-line"><path class="connection real" stroke-dasharray="" d="  M337.55,158.26 L344.17,152.07" style="stroke: rgb(0, 0, 0); stroke-width: 1; fill: rgb(255, 3, 3); fill-opacity: 1;"/></g><g class="composite-shape"><path class="real" d=" M344.17,152.07 L344.17,133.5 L337.55,139.68 L337.55,158.26 Z" style="stroke-width: 1; stroke: rgb(0, 0, 0); fill: rgb(255, 3, 3); fill-opacity: 1;"/></g><g class="composite-shape"><path class="real" d=" M327.69,133.5 L344.17,133.5 L337.49,139.69 L321,139.69 Z" style="stroke-width: 1; stroke: rgb(0, 0, 0); fill: rgb(255, 3, 3); fill-opacity: 1;"/></g><g class="composite-shape"><path class="real" d=" M356.5,164.69 L370.55,164.69 L370.55,180.26 L356.5,180.26 Z" style="stroke-width: 1; stroke: rgb(0, 0, 0); fill: rgb(255, 3, 3); fill-opacity: 1;"/></g><g class="arrow-line"><path class="connection real" stroke-dasharray="" d="  M370.55,164.69 L376.17,159.5" style="stroke: rgb(0, 0, 0); stroke-width: 1; fill: rgb(255, 3, 3); fill-opacity: 1;"/></g><g class="arrow-line"><path class="connection real" stroke-dasharray="" d="  M370.55,180.26 L376.17,175.07" style="stroke: rgb(0, 0, 0); stroke-width: 1; fill: rgb(255, 3, 3); fill-opacity: 1;"/></g><g class="composite-shape"><path class="real" d=" M376.17,175.07 L376.17,159.5 L370.55,164.69 L370.55,180.26 Z" style="stroke-width: 1; stroke: rgb(0, 0, 0); fill: rgb(255, 3, 3); fill-opacity: 1;"/></g><g class="composite-shape"><path class="real" d=" M362.18,159.5 L376.17,159.5 L370.5,164.69 L356.5,164.69 Z" style="stroke-width: 1; stroke: rgb(0, 0, 0); fill: rgb(255, 3, 3); fill-opacity: 1;"/></g><g class="composite-shape"><path class="real" d=" M390,183.06 L402.27,183.06 L402.27,196.76 L390,196.76 Z" style="stroke-width: 1; stroke: rgb(0, 0, 0); fill: rgb(255, 3, 3); fill-opacity: 1;"/></g><g class="arrow-line"><path class="connection real" stroke-dasharray="" d="  M402.27,183.06 L407.17,178.5" style="stroke: rgb(0, 0, 0); stroke-width: 1; fill: rgb(255, 3, 3); fill-opacity: 1;"/></g><g class="arrow-line"><path class="connection real" stroke-dasharray="" d="  M402.27,196.76 L407.17,192.19" style="stroke: rgb(0, 0, 0); stroke-width: 1; fill: rgb(255, 3, 3); fill-opacity: 1;"/></g><g class="composite-shape"><path class="real" d=" M407.17,192.2 L407.17,178.5 L402.27,183.06 L402.27,196.76 Z" style="stroke-width: 1; stroke: rgb(0, 0, 0); fill: rgb(255, 3, 3); fill-opacity: 1;"/></g><g class="composite-shape"><path class="real" d=" M394.96,178.5 L407.17,178.5 L402.22,183.06 L390,183.06 Z" style="stroke-width: 1; stroke: rgb(0, 0, 0); fill: rgb(255, 3, 3); fill-opacity: 1;"/></g><g class="arrow-line"><path class="connection real" stroke-dasharray="9 6" d="  M277.9,113.5 L338.5,63.5" style="stroke: rgb(0, 0, 0); stroke-width: 3; fill: none; fill-opacity: 1;"/></g><g class="arrow-line"><path class="connection real" stroke-dasharray="9 6" d="  M427.9,113.5 L488.5,63.5" style="stroke: rgb(0, 0, 0); stroke-width: 3; fill: none; fill-opacity: 1;"/></g><g class="arrow-line"><path class="connection real" stroke-dasharray="9 6" d="  M277.9,283.5 L338.5,233.5" style="stroke: rgb(0, 0, 0); stroke-width: 3; fill: none; fill-opacity: 1;"/></g><g class="arrow-line"><path class="connection real" stroke-dasharray="9 6" d="  M427.9,283.5 L488.5,233.5" style="stroke: rgb(0, 0, 0); stroke-width: 3; fill: none; fill-opacity: 1;"/></g><g class="arrow-line"><path class="connection real" stroke-dasharray="9 6" d="  M277.9,283.5 L428.5,283.5" style="stroke: rgb(0, 0, 0); stroke-width: 3; fill: none; fill-opacity: 1;"/></g><g class="arrow-line"><path class="connection real" stroke-dasharray="9 6" d="  M279.4,280 L277.9,113.5" style="stroke: rgb(0, 0, 0); stroke-width: 3; fill: none; fill-opacity: 1;"/></g><g class="arrow-line"><path class="connection real" stroke-dasharray="9 6" d="  M276.78,113.74 L427.9,113.5" style="stroke: rgb(0, 0, 0); stroke-width: 3; fill: none; fill-opacity: 1;"/></g><g class="arrow-line"><path class="connection real" stroke-dasharray="9 6" d="  M337.9,63.5 L488.5,63.5" style="stroke: rgb(0, 0, 0); stroke-width: 3; fill: none; fill-opacity: 1;"/></g><g class="arrow-line"><path class="connection real" stroke-dasharray="9 6" d="  M488.5,233.5 L488.5,63.5" style="stroke: rgb(0, 0, 0); stroke-width: 3; fill: none; fill-opacity: 1;"/></g><g class="arrow-line"><path class="connection real" stroke-dasharray="9 6" d="  M337.9,233.5 L488.5,233.5" style="stroke: rgb(0, 0, 0); stroke-width: 3; fill: none; fill-opacity: 1;"/></g><g class="composite-shape"><path class="real" d=" M418.75,198.19 L429.02,198.19 L429.02,209.26 L418.75,209.26 Z" style="stroke-width: 1; stroke: rgb(0, 0, 0); fill: rgb(255, 3, 3); fill-opacity: 1;"/></g><g class="arrow-line"><path class="connection real" stroke-dasharray="" d="  M429.02,198.19 L433.12,194.5" style="stroke: rgb(0, 0, 0); stroke-width: 1; fill: rgb(255, 3, 3); fill-opacity: 1;"/></g><g class="arrow-line"><path class="connection real" stroke-dasharray="" d="  M429.02,209.26 L433.12,205.57" style="stroke: rgb(0, 0, 0); stroke-width: 1; fill: rgb(255, 3, 3); fill-opacity: 1;"/></g><g class="composite-shape"><path class="real" d=" M433.12,205.57 L433.12,194.5 L429.02,198.19 L429.02,209.26 Z" style="stroke-width: 1; stroke: rgb(0, 0, 0); fill: rgb(255, 3, 3); fill-opacity: 1;"/></g><g class="composite-shape"><path class="real" d=" M422.9,194.5 L433.12,194.5 L428.98,198.19 L418.75,198.19 Z" style="stroke-width: 1; stroke: rgb(0, 0, 0); fill: rgb(255, 3, 3); fill-opacity: 1;"/></g><g class="composite-shape"><path class="real" d=" M445.75,212.19 L454.23,212.19 L454.23,221.76 L445.75,221.76 Z" style="stroke-width: 1; stroke: rgb(0, 0, 0); fill: rgb(255, 3, 3); fill-opacity: 1;"/></g><g class="arrow-line"><path class="connection real" stroke-dasharray="" d="  M454.23,212.19 L457.62,209" style="stroke: rgb(0, 0, 0); stroke-width: 1; fill: rgb(255, 3, 3); fill-opacity: 1;"/></g><g class="arrow-line"><path class="connection real" stroke-dasharray="" d="  M454.23,221.76 L457.62,218.57" style="stroke: rgb(0, 0, 0); stroke-width: 1; fill: rgb(255, 3, 3); fill-opacity: 1;"/></g><g class="composite-shape"><path class="real" d=" M457.62,218.57 L457.62,209 L454.23,212.19 L454.23,221.76 Z" style="stroke-width: 1; stroke: rgb(0, 0, 0); fill: rgb(255, 3, 3); fill-opacity: 1;"/></g><g class="composite-shape"><path class="real" d=" M449.18,209 L457.62,209 L454.2,212.19 L445.75,212.19 Z" style="stroke-width: 1; stroke: rgb(0, 0, 0); fill: rgb(255, 3, 3); fill-opacity: 1;"/></g><g class="composite-shape"><path class="real" d=" M472.75,225.19 L480.87,225.19 L480.87,234.76 L472.75,234.76 Z" style="stroke-width: 1; stroke: rgb(0, 0, 0); fill: rgb(255, 3, 3); fill-opacity: 1;"/></g><g class="arrow-line"><path class="connection real" stroke-dasharray="" d="  M480.87,225.19 L484.12,222" style="stroke: rgb(0, 0, 0); stroke-width: 1; fill: rgb(255, 3, 3); fill-opacity: 1;"/></g><g class="arrow-line"><path class="connection real" stroke-dasharray="" d="  M480.87,234.76 L484.12,231.57" style="stroke: rgb(0, 0, 0); stroke-width: 1; fill: rgb(255, 3, 3); fill-opacity: 1;"/></g><g class="composite-shape"><path class="real" d=" M484.12,231.57 L484.12,222 L480.87,225.19 L480.87,234.76 Z" style="stroke-width: 1; stroke: rgb(0, 0, 0); fill: rgb(255, 3, 3); fill-opacity: 1;"/></g><g class="composite-shape"><path class="real" d=" M476.03,222 L484.12,222 L480.84,225.19 L472.75,225.19 Z" style="stroke-width: 1; stroke: rgb(0, 0, 0); fill: rgb(255, 3, 3); fill-opacity: 1;"/></g><g class="arrow-line"><path class="connection real" stroke-dasharray="9 6" d="  M428.5,283.5 L428.5,113.5" style="stroke: rgb(0, 0, 0); stroke-width: 3; fill: none; fill-opacity: 1;"/></g><g class="composite-shape"><path class="real" d=" M280.02,290 L430,290 L369.98,340 L220,340 Z" style="stroke-width: 1; stroke: rgb(0, 0, 0); fill: rgb(255, 255, 255); fill-opacity: 1;"/></g><g class="composite-shape"><path class="real" d=" M500.02,240 L650,240 L589.98,290 L440,290 Z" style="stroke-width: 1; stroke: rgb(0, 0, 0); fill: rgb(255, 255, 255); fill-opacity: 1;"/></g><g class="composite-shape"><path class="real" d=" M500,70 L650,70 L650,230 L500,230 Z" style="stroke-width: 1; stroke: rgb(0, 0, 0); fill: rgb(255, 255, 255); fill-opacity: 1;"/></g><g/></g><g/><g/><g/></svg>
        <svg xmlns="http://www.w3.org/2000/svg" xmlns:xlink="http://www.w3.org/1999/xlink" width="660" height="415.44873046875" style="width:660px;height:415.44873046875px;font-family:Asana-Math, Asana;background:#FFF;"><g><g><g><g transform="matrix(1,0,0,1,240.18157958984375,188.78557250976561)"><path transform="matrix(0.024480000000000002,0,0,-0.024480000000000002,0,0)" d="M604 347L604 406L65 406L65 347ZM604 134L604 193L65 193L65 134Z" stroke="rgb(0,0,0)" stroke-opacity="1" stroke-width="24" fill="rgb(0,0,0)" fill-opacity="1"></path></g></g></g></g><g><g><g><g transform="matrix(1,0,0,1,311.9871826171875,315.3013000488281)"><path transform="matrix(0.017,0,0,-0.017,0,0)" d="M408 700L376 700L106 79C94 50 74 32 52 30L15 27L15 -3C108 0 108 0 124 0C137 0 137 0 245 -3L245 27L208 30C173 33 160 40 160 56L223 229L511 229L557 114C574 72 578 59 578 50C578 39 562 32 537 30L490 27L490 -3C613 0 613 0 629 0C648 0 648 0 756 -3L756 27L722 30C696 34 685 51 650 132ZM240 269L367 567L493 269Z" stroke="rgb(0,0,0)" stroke-opacity="1" stroke-width="24" fill="rgb(0,0,0)" fill-opacity="1"></path></g></g><g><g><g><g><g transform="matrix(1,0,0,1,325.70513916015625,318.98334350585935)"><path transform="matrix(0.0119,0,0,-0.0119,0,0)" d="M418 -3L418 27L366 30C311 33 301 44 301 96L301 700L60 598L67 548L217 614L217 96C217 44 206 33 152 30L96 27L96 -3C250 0 250 0 261 0C292 0 402 -3 418 -3Z" stroke="rgb(0,0,0)" stroke-opacity="1" stroke-width="8" fill="rgb(0,0,0)" fill-opacity="1"></path></g></g></g></g></g></g></g><g><g><g><g transform="matrix(1,0,0,1,537.991455078125,266.3055725097656)"><path transform="matrix(0.017,0,0,-0.017,0,0)" d="M408 700L376 700L106 79C94 50 74 32 52 30L15 27L15 -3C108 0 108 0 124 0C137 0 137 0 245 -3L245 27L208 30C173 33 160 40 160 56L223 229L511 229L557 114C574 72 578 59 578 50C578 39 562 32 537 30L490 27L490 -3C613 0 613 0 629 0C648 0 648 0 756 -3L756 27L722 30C696 34 685 51 650 132ZM240 269L367 567L493 269Z" stroke="rgb(0,0,0)" stroke-opacity="1" stroke-width="24" fill="rgb(0,0,0)" fill-opacity="1"></path></g></g><g><g><g><g><g transform="matrix(1,0,0,1,551.7093505859375,269.98761596679685)"><path transform="matrix(0.0119,0,0,-0.0119,0,0)" d="M16 23L16 -3C203 -3 203 0 239 0C275 0 275 -3 468 -3L468 82C353 77 307 81 122 77L304 270C401 373 431 428 431 503C431 618 353 689 226 689C154 689 105 669 56 619L39 483L68 483L81 529C97 587 133 612 200 612C286 612 341 558 341 473C341 398 299 324 186 204Z" stroke="rgb(0,0,0)" stroke-opacity="1" stroke-width="8" fill="rgb(0,0,0)" fill-opacity="1"></path></g></g></g></g></g></g></g><g><g><g><g transform="matrix(1,0,0,1,567.991455078125,156.30555725097656)"><path transform="matrix(0.017,0,0,-0.017,0,0)" d="M408 700L376 700L106 79C94 50 74 32 52 30L15 27L15 -3C108 0 108 0 124 0C137 0 137 0 245 -3L245 27L208 30C173 33 160 40 160 56L223 229L511 229L557 114C574 72 578 59 578 50C578 39 562 32 537 30L490 27L490 -3C613 0 613 0 629 0C648 0 648 0 756 -3L756 27L722 30C696 34 685 51 650 132ZM240 269L367 567L493 269Z" stroke="rgb(0,0,0)" stroke-opacity="1" stroke-width="24" fill="rgb(0,0,0)" fill-opacity="1"></path></g></g><g><g><g><g><g transform="matrix(1,0,0,1,581.7093505859375,159.98761596679688)"><path transform="matrix(0.0119,0,0,-0.0119,0,0)" d="M462 224C462 345 355 366 308 374C388 436 418 482 418 541C418 630 344 689 233 689C165 689 120 670 72 622L43 498L74 498L92 554C103 588 166 622 218 622C283 622 336 569 336 506C336 431 277 368 206 368C198 368 187 369 174 370L159 371L147 318L154 312C192 329 211 334 238 334C321 334 369 281 369 190C369 88 308 21 215 21C169 21 128 36 98 64C74 86 61 109 42 163L15 153C36 92 44 56 50 6C103 -12 147 -20 184 -20C307 -20 462 87 462 224Z" stroke="rgb(0,0,0)" stroke-opacity="1" stroke-width="8" fill="rgb(0,0,0)" fill-opacity="1"></path></g></g></g></g></g></g></g><g><g><g><g transform="matrix(1,0,0,1,471.9871826171875,327.44873046875)"><path transform="matrix(0.017,0,0,-0.017,0,0)" d="M408 700L376 700L106 79C94 50 74 32 52 30L15 27L15 -3C108 0 108 0 124 0C137 0 137 0 245 -3L245 27L208 30C173 33 160 40 160 56L223 229L511 229L557 114C574 72 578 59 578 50C578 39 562 32 537 30L490 27L490 -3C613 0 613 0 629 0C648 0 648 0 756 -3L756 27L722 30C696 34 685 51 650 132ZM240 269L367 567L493 269Z" stroke="rgb(255,255,255)" stroke-opacity="1" stroke-width="24" fill="rgb(255,255,255)" fill-opacity="1"></path></g></g><g><g><g><g><g transform="matrix(1,0,0,1,486.1751708984375,321.8893188476562)"><path transform="matrix(0.0119,0,0,-0.0119,0,0)" d="M390 646L463 646C541 646 577 641 580 629C583 621 585 602 584 592L580 528L608 528L635 692L544 691C456 690 388 689 353 689C316 689 252 690 166 691L71 692L53 528L82 528L97 588C102 610 109 626 115 633C121 640 159 646 196 646L308 646L222 125C206 34 204 31 164 28L113 25L109 -3L166 -2C206 -1 235 0 251 0C270 0 301 -1 340 -2L384 -3L387 25L328 28C302 29 292 37 292 58C292 67 293 74 296 93Z" stroke="rgb(255,255,255)" stroke-opacity="1" stroke-width="8" fill="rgb(255,255,255)" fill-opacity="1"></path></g></g></g></g><g><g><g><g transform="matrix(1,0,0,1,485.705078125,332.7867492675781)"><path transform="matrix(0.0119,0,0,-0.0119,0,0)" d="M418 -3L418 27L366 30C311 33 301 44 301 96L301 700L60 598L67 548L217 614L217 96C217 44 206 33 152 30L96 27L96 -3C250 0 250 0 261 0C292 0 402 -3 418 -3Z" stroke="rgb(255,255,255)" stroke-opacity="1" stroke-width="8" fill="rgb(255,255,255)" fill-opacity="1"></path></g></g></g></g></g><g><g transform="matrix(1,0,0,1,494.455078125,327.44873046875)"><path transform="matrix(0.017,0,0,-0.017,0,0)" d="M408 700L376 700L106 79C94 50 74 32 52 30L15 27L15 -3C108 0 108 0 124 0C137 0 137 0 245 -3L245 27L208 30C173 33 160 40 160 56L223 229L511 229L557 114C574 72 578 59 578 50C578 39 562 32 537 30L490 27L490 -3C613 0 613 0 629 0C648 0 648 0 756 -3L756 27L722 30C696 34 685 51 650 132ZM240 269L367 567L493 269Z" stroke="rgb(255,255,255)" stroke-opacity="1" stroke-width="24" fill="rgb(255,255,255)" fill-opacity="1"></path></g></g><g><g><g><g><g transform="matrix(1,0,0,1,508.173095703125,331.1307739257812)"><path transform="matrix(0.0119,0,0,-0.0119,0,0)" d="M418 -3L418 27L366 30C311 33 301 44 301 96L301 700L60 598L67 548L217 614L217 96C217 44 206 33 152 30L96 27L96 -3C250 0 250 0 261 0C292 0 402 -3 418 -3Z" stroke="rgb(255,255,255)" stroke-opacity="1" stroke-width="8" fill="rgb(255,255,255)" fill-opacity="1"></path></g></g></g></g></g><g><g transform="matrix(1,0,0,1,515.128173828125,327.44873046875)"><path transform="matrix(0.017,0,0,-0.017,0,0)" d="" stroke="rgb(255,255,255)" stroke-opacity="1" stroke-width="8" fill="rgb(255,255,255)" fill-opacity="1"></path></g></g><g><g transform="matrix(1,0,0,1,524.4658203125,327.44873046875)"><path transform="matrix(0.017,0,0,-0.017,0,0)" d="M604 347L604 406L65 406L65 347ZM604 134L604 193L65 193L65 134Z" stroke="rgb(255,255,255)" stroke-opacity="1" stroke-width="8" fill="rgb(255,255,255)" fill-opacity="1"></path></g></g><g><g transform="matrix(1,0,0,1,540.9188232421875,327.44873046875)"><path transform="matrix(0.017,0,0,-0.017,0,0)" d="" stroke="rgb(255,255,255)" stroke-opacity="1" stroke-width="8" fill="rgb(255,255,255)" fill-opacity="1"></path></g></g><g><g transform="matrix(1,0,0,1,545.1602783203125,327.44873046875)"><path transform="matrix(0.017,0,0,-0.017,0,0)" d="M216 569C216 648 221 656 267 659L315 662L315 692C242 689 220 689 168 689C118 689 94 690 22 692L22 662L70 659C116 656 121 648 121 569L121 120C121 41 116 33 70 30L22 27L22 -3C81 -1 116 0 168 0C220 0 256 -1 315 -3L315 27L267 30C221 33 216 41 216 120Z" stroke="rgb(255,255,255)" stroke-opacity="1" stroke-width="24" fill="rgb(255,255,255)" fill-opacity="1"></path></g></g></g><g><g><g transform="matrix(1,0,0,1,471.9871826171875,352.0213928222656)"><path transform="matrix(0.017,0,0,-0.017,0,0)" d="M408 700L376 700L106 79C94 50 74 32 52 30L15 27L15 -3C108 0 108 0 124 0C137 0 137 0 245 -3L245 27L208 30C173 33 160 40 160 56L223 229L511 229L557 114C574 72 578 59 578 50C578 39 562 32 537 30L490 27L490 -3C613 0 613 0 629 0C648 0 648 0 756 -3L756 27L722 30C696 34 685 51 650 132ZM240 269L367 567L493 269Z" stroke="rgb(255,255,255)" stroke-opacity="1" stroke-width="24" fill="rgb(255,255,255)" fill-opacity="1"></path></g></g><g><g><g><g><g transform="matrix(1,0,0,1,486.1751708984375,346.46198120117185)"><path transform="matrix(0.0119,0,0,-0.0119,0,0)" d="M390 646L463 646C541 646 577 641 580 629C583 621 585 602 584 592L580 528L608 528L635 692L544 691C456 690 388 689 353 689C316 689 252 690 166 691L71 692L53 528L82 528L97 588C102 610 109 626 115 633C121 640 159 646 196 646L308 646L222 125C206 34 204 31 164 28L113 25L109 -3L166 -2C206 -1 235 0 251 0C270 0 301 -1 340 -2L384 -3L387 25L328 28C302 29 292 37 292 58C292 67 293 74 296 93Z" stroke="rgb(255,255,255)" stroke-opacity="1" stroke-width="8" fill="rgb(255,255,255)" fill-opacity="1"></path></g></g></g></g><g><g><g><g transform="matrix(1,0,0,1,485.705078125,357.3594116210937)"><path transform="matrix(0.0119,0,0,-0.0119,0,0)" d="M16 23L16 -3C203 -3 203 0 239 0C275 0 275 -3 468 -3L468 82C353 77 307 81 122 77L304 270C401 373 431 428 431 503C431 618 353 689 226 689C154 689 105 669 56 619L39 483L68 483L81 529C97 587 133 612 200 612C286 612 341 558 341 473C341 398 299 324 186 204Z" stroke="rgb(255,255,255)" stroke-opacity="1" stroke-width="8" fill="rgb(255,255,255)" fill-opacity="1"></path></g></g></g></g></g><g><g transform="matrix(1,0,0,1,494.455078125,352.0213928222656)"><path transform="matrix(0.017,0,0,-0.017,0,0)" d="M408 700L376 700L106 79C94 50 74 32 52 30L15 27L15 -3C108 0 108 0 124 0C137 0 137 0 245 -3L245 27L208 30C173 33 160 40 160 56L223 229L511 229L557 114C574 72 578 59 578 50C578 39 562 32 537 30L490 27L490 -3C613 0 613 0 629 0C648 0 648 0 756 -3L756 27L722 30C696 34 685 51 650 132ZM240 269L367 567L493 269Z" stroke="rgb(255,255,255)" stroke-opacity="1" stroke-width="24" fill="rgb(255,255,255)" fill-opacity="1"></path></g></g><g><g><g><g><g transform="matrix(1,0,0,1,508.173095703125,355.70343627929685)"><path transform="matrix(0.0119,0,0,-0.0119,0,0)" d="M16 23L16 -3C203 -3 203 0 239 0C275 0 275 -3 468 -3L468 82C353 77 307 81 122 77L304 270C401 373 431 428 431 503C431 618 353 689 226 689C154 689 105 669 56 619L39 483L68 483L81 529C97 587 133 612 200 612C286 612 341 558 341 473C341 398 299 324 186 204Z" stroke="rgb(255,255,255)" stroke-opacity="1" stroke-width="8" fill="rgb(255,255,255)" fill-opacity="1"></path></g></g></g></g></g><g><g transform="matrix(1,0,0,1,515.128173828125,352.0213928222656)"><path transform="matrix(0.017,0,0,-0.017,0,0)" d="" stroke="rgb(255,255,255)" stroke-opacity="1" stroke-width="8" fill="rgb(255,255,255)" fill-opacity="1"></path></g></g><g><g transform="matrix(1,0,0,1,524.4658203125,352.0213928222656)"><path transform="matrix(0.017,0,0,-0.017,0,0)" d="M604 347L604 406L65 406L65 347ZM604 134L604 193L65 193L65 134Z" stroke="rgb(255,255,255)" stroke-opacity="1" stroke-width="8" fill="rgb(255,255,255)" fill-opacity="1"></path></g></g><g><g transform="matrix(1,0,0,1,540.9188232421875,352.0213928222656)"><path transform="matrix(0.017,0,0,-0.017,0,0)" d="" stroke="rgb(255,255,255)" stroke-opacity="1" stroke-width="8" fill="rgb(255,255,255)" fill-opacity="1"></path></g></g><g><g transform="matrix(1,0,0,1,545.1602783203125,352.0213928222656)"><path transform="matrix(0.017,0,0,-0.017,0,0)" d="M216 569C216 648 221 656 267 659L315 662L315 692C242 689 220 689 168 689C118 689 94 690 22 692L22 662L70 659C116 656 121 648 121 569L121 120C121 41 116 33 70 30L22 27L22 -3C81 -1 116 0 168 0C220 0 256 -1 315 -3L315 27L267 30C221 33 216 41 216 120Z" stroke="rgb(255,255,255)" stroke-opacity="1" stroke-width="24" fill="rgb(255,255,255)" fill-opacity="1"></path></g></g></g><g><g><g transform="matrix(1,0,0,1,471.9871826171875,376.5940246582031)"><path transform="matrix(0.017,0,0,-0.017,0,0)" d="M408 700L376 700L106 79C94 50 74 32 52 30L15 27L15 -3C108 0 108 0 124 0C137 0 137 0 245 -3L245 27L208 30C173 33 160 40 160 56L223 229L511 229L557 114C574 72 578 59 578 50C578 39 562 32 537 30L490 27L490 -3C613 0 613 0 629 0C648 0 648 0 756 -3L756 27L722 30C696 34 685 51 650 132ZM240 269L367 567L493 269Z" stroke="rgb(255,255,255)" stroke-opacity="1" stroke-width="24" fill="rgb(255,255,255)" fill-opacity="1"></path></g></g><g><g><g><g><g transform="matrix(1,0,0,1,486.1751708984375,371.03461303710935)"><path transform="matrix(0.0119,0,0,-0.0119,0,0)" d="M390 646L463 646C541 646 577 641 580 629C583 621 585 602 584 592L580 528L608 528L635 692L544 691C456 690 388 689 353 689C316 689 252 690 166 691L71 692L53 528L82 528L97 588C102 610 109 626 115 633C121 640 159 646 196 646L308 646L222 125C206 34 204 31 164 28L113 25L109 -3L166 -2C206 -1 235 0 251 0C270 0 301 -1 340 -2L384 -3L387 25L328 28C302 29 292 37 292 58C292 67 293 74 296 93Z" stroke="rgb(255,255,255)" stroke-opacity="1" stroke-width="8" fill="rgb(255,255,255)" fill-opacity="1"></path></g></g></g></g><g><g><g><g transform="matrix(1,0,0,1,485.705078125,381.93207397460935)"><path transform="matrix(0.0119,0,0,-0.0119,0,0)" d="M462 224C462 345 355 366 308 374C388 436 418 482 418 541C418 630 344 689 233 689C165 689 120 670 72 622L43 498L74 498L92 554C103 588 166 622 218 622C283 622 336 569 336 506C336 431 277 368 206 368C198 368 187 369 174 370L159 371L147 318L154 312C192 329 211 334 238 334C321 334 369 281 369 190C369 88 308 21 215 21C169 21 128 36 98 64C74 86 61 109 42 163L15 153C36 92 44 56 50 6C103 -12 147 -20 184 -20C307 -20 462 87 462 224Z" stroke="rgb(255,255,255)" stroke-opacity="1" stroke-width="8" fill="rgb(255,255,255)" fill-opacity="1"></path></g></g></g></g></g><g><g transform="matrix(1,0,0,1,494.455078125,376.5940246582031)"><path transform="matrix(0.017,0,0,-0.017,0,0)" d="M408 700L376 700L106 79C94 50 74 32 52 30L15 27L15 -3C108 0 108 0 124 0C137 0 137 0 245 -3L245 27L208 30C173 33 160 40 160 56L223 229L511 229L557 114C574 72 578 59 578 50C578 39 562 32 537 30L490 27L490 -3C613 0 613 0 629 0C648 0 648 0 756 -3L756 27L722 30C696 34 685 51 650 132ZM240 269L367 567L493 269Z" stroke="rgb(255,255,255)" stroke-opacity="1" stroke-width="24" fill="rgb(255,255,255)" fill-opacity="1"></path></g></g><g><g><g><g><g transform="matrix(1,0,0,1,508.173095703125,380.27606811523435)"><path transform="matrix(0.0119,0,0,-0.0119,0,0)" d="M462 224C462 345 355 366 308 374C388 436 418 482 418 541C418 630 344 689 233 689C165 689 120 670 72 622L43 498L74 498L92 554C103 588 166 622 218 622C283 622 336 569 336 506C336 431 277 368 206 368C198 368 187 369 174 370L159 371L147 318L154 312C192 329 211 334 238 334C321 334 369 281 369 190C369 88 308 21 215 21C169 21 128 36 98 64C74 86 61 109 42 163L15 153C36 92 44 56 50 6C103 -12 147 -20 184 -20C307 -20 462 87 462 224Z" stroke="rgb(255,255,255)" stroke-opacity="1" stroke-width="8" fill="rgb(255,255,255)" fill-opacity="1"></path></g></g></g></g></g><g><g transform="matrix(1,0,0,1,515.128173828125,376.5940246582031)"><path transform="matrix(0.017,0,0,-0.017,0,0)" d="" stroke="rgb(255,255,255)" stroke-opacity="1" stroke-width="8" fill="rgb(255,255,255)" fill-opacity="1"></path></g></g><g><g transform="matrix(1,0,0,1,524.4658203125,376.5940246582031)"><path transform="matrix(0.017,0,0,-0.017,0,0)" d="M604 347L604 406L65 406L65 347ZM604 134L604 193L65 193L65 134Z" stroke="rgb(255,255,255)" stroke-opacity="1" stroke-width="8" fill="rgb(255,255,255)" fill-opacity="1"></path></g></g><g><g transform="matrix(1,0,0,1,540.9188232421875,376.5940246582031)"><path transform="matrix(0.017,0,0,-0.017,0,0)" d="" stroke="rgb(255,255,255)" stroke-opacity="1" stroke-width="8" fill="rgb(255,255,255)" fill-opacity="1"></path></g></g><g><g transform="matrix(1,0,0,1,545.1602783203125,376.5940246582031)"><path transform="matrix(0.017,0,0,-0.017,0,0)" d="M216 569C216 648 221 656 267 659L315 662L315 692C242 689 220 689 168 689C118 689 94 690 22 692L22 662L70 659C116 656 121 648 121 569L121 120C121 41 116 33 70 30L22 27L22 -3C81 -1 116 0 168 0C220 0 256 -1 315 -3L315 27L267 30C221 33 216 41 216 120Z" stroke="rgb(255,255,255)" stroke-opacity="1" stroke-width="24" fill="rgb(255,255,255)" fill-opacity="1"></path></g></g></g></g></svg>
</svg>
